<svg xmlns="http://www.w3.org/2000/svg" version="1.1" xmlns:xlink="http://www.w3.org/1999/xlink" xmlns:svgjs="http://svgjs.com/svgjs" viewBox="-1.0510565162951537 -1.2727457514062632 5.762309486447421 2.354508497187474"><svg id="SvgjsSvg1002" width="2" height="0" focusable="false" style="overflow:hidden;top:-100%;left:-100%;position:absolute;opacity:0"><polyline id="SvgjsPolyline1003" points="0.726542528005361,-0.3090169943749474 -0.13369617228912234,0.3159830056250525 -0.5877852522924729,-0.3090169943749474"></polyline><path id="SvgjsPath1004" d=""></path></svg><g id="SvgjsG1032" transform="matrix(1,0,0,1,0,0)"><polygon id="SvgjsPolygon1033" points="6.123233995736766e-17,-1 -0.9510565162951536,-0.3090169943749473 -0.2245139882897926,-0.30901699437494734" fill="#1e963e" stroke-linejoin="bevel" stroke="#000000" stroke-width="0.03"></polygon><polygon id="SvgjsPolygon1034" points="6.123233995736766e-17,-1 0.9510565162951535,-0.3090169943749474 -0.2245139882897926,-0.30901699437494734" fill="#f7ca36" stroke-linejoin="bevel" stroke="#000000" stroke-width="0.03"></polygon><polygon id="SvgjsPolygon1035" points="-0.9510565162951536,-0.3090169943749473 -0.7265425280053608,-0.3090169943749474 -0.2724534480020102,0.3159830056250525 -0.6571638901489169,0.5954915028125263" fill="#5db3e8" stroke-linejoin="bevel" stroke="#000000" stroke-width="0.03"></polygon><polygon id="SvgjsPolygon1036" points="0.5877852522924731,-0.3090169943749474 -0.2724534480020102,0.3159830056250525 -0.7265425280053608,-0.3090169943749474" fill="#c91435" stroke-linejoin="bevel" stroke="#000000" stroke-width="0.03"></polygon><polygon id="SvgjsPolygon1037" points="0.9510565162951535,-0.3090169943749474 0.5877852522924731,-0.3090169943749474 0.20307481014556644,-0.0295084971874737 0.6571638901489171,0.5954915028125263" fill="#ba36ba" stroke-linejoin="bevel" stroke="#000000" stroke-width="0.03"></polygon><polygon id="SvgjsPolygon1038" points="0.6571638901489171,0.5954915028125263 0.5877852522924731,0.8090169943749475 -0.587785252292473,0.8090169943749475 -0.6571638901489169,0.5954915028125263 0.20307481014556644,-0.0295084971874737" fill="#ad5e0e" stroke-linejoin="bevel" stroke="#000000" stroke-width="0.03"></polygon></g><g id="SvgjsG1039" transform="matrix(1,0,0,1,3.5,-1.1432372542187894)"><polygon id="SvgjsPolygon1040" points="0.5877852522924731,0.8090169943749475 -0.3632712640026806,1.5000000000000002 0.3632712640026804,1.5" fill="#1e963e" stroke-linejoin="bevel" stroke="#000000" stroke-width="0.03"></polygon><polygon id="SvgjsPolygon1041" points="-0.587785252292473,0.8090169943749475 0.3632712640026804,1.5 -0.8122992405822658,1.5" fill="#f7ca36" stroke-linejoin="bevel" stroke="#000000" stroke-width="0.03" transform="matrix(0.8090169943749475,-0.5877852522924731,0.5877852522924731,0.8090169943749475,-0.5877852522924731,-0.19098300562505255)"></polygon><polygon id="SvgjsPolygon1042" points="-0.9510565162951536,-0.3090169943749473 -0.7265425280053608,-0.3090169943749474 -0.2724534480020102,0.3159830056250525 -0.6571638901489169,0.5954915028125263" fill="#5db3e8" stroke-linejoin="bevel" stroke="#000000" stroke-width="0.03" transform="matrix(-1,1.2246467991473532e-16,-1.2246467991473532e-16,-1,-1.3143277802978335,1.1909830056250525)"></polygon><polygon id="SvgjsPolygon1043" points="0.726542528005361,1.5 -0.13369617228912234,2.125 -0.5877852522924729,1.5" fill="#c91435" stroke-linejoin="bevel" stroke="#000000" stroke-width="0.03"></polygon><polygon id="SvgjsPolygon1044" points="0.9510565162951535,-0.3090169943749474 0.5877852522924731,-0.3090169943749474 0.20307481014556644,-0.0295084971874737 0.6571638901489171,0.5954915028125263" fill="#ba36ba" stroke-linejoin="bevel" stroke="#000000" stroke-width="0.03" transform="matrix(-1,1.2246467991473532e-16,-1.2246467991473532e-16,-1,1.3143277802978344,1.1909830056250525)"></polygon><polygon id="SvgjsPolygon1045" points="0.6571638901489171,0.5954915028125263 0.5877852522924731,0.8090169943749475 -0.587785252292473,0.8090169943749475 -0.6571638901489169,0.5954915028125263 0.20307481014556644,-0.0295084971874737" fill="#ad5e0e" stroke-linejoin="bevel" stroke="#000000" stroke-width="0.03"></polygon></g></svg>