
<svg xmlns="http://www.w3.org/2000/svg" version="1.1" xmlns:xlink="http://www.w3.org/1999/xlink" xmlns:svgjs="http://svgjs.dev/svgjs" viewBox="-1.0510565162951537 -1.2727457514062632 5.762309486447422 2.354508497187474">
 <g>
  <polygon points="6.123233995736766e-17,-1 -0.9510565162951536,-0.3090169943749473 -0.2245139882897926,-0.30901699437494734" fill="#1e963e" stroke-linejoin="bevel" stroke-width="0.03" stroke="#000000"></polygon>
  <polygon points="6.123233995736766e-17,-1 0.9510565162951535,-0.3090169943749474 -0.2245139882897926,-0.30901699437494734" fill="#f7ca36" stroke-linejoin="bevel" stroke-width="0.03" stroke="#000000"></polygon>
  <polygon points="-0.9510565162951536,-0.3090169943749473 -0.7265425280053608,-0.3090169943749474 -0.2724534480020102,0.3159830056250525 -0.6571638901489169,0.5954915028125263" fill="#5db3e8" stroke-linejoin="bevel" stroke-width="0.03" stroke="#000000"></polygon>
  <polygon points="0.5877852522924731,-0.3090169943749474 -0.2724534480020102,0.3159830056250525 -0.7265425280053608,-0.3090169943749474" fill="#c91435" stroke-linejoin="bevel" stroke-width="0.03" stroke="#000000"></polygon>
  <polygon points="0.9510565162951535,-0.3090169943749474 0.5877852522924731,-0.3090169943749474 0.20307481014556644,-0.0295084971874737 0.6571638901489171,0.5954915028125263" fill="#ba36ba" stroke-linejoin="bevel" stroke-width="0.03" stroke="#000000"></polygon>
  <polygon points="0.6571638901489171,0.5954915028125263 0.5877852522924731,0.8090169943749475 -0.587785252292473,0.8090169943749475 -0.6571638901489169,0.5954915028125263 0.20307481014556644,-0.0295084971874737" fill="#ad5e0e" stroke-linejoin="bevel" stroke-width="0.03" stroke="#000000"></polygon>
 </g>
 <g transform="matrix(1,0,0,1,3.5,0)">
  <polygon points="0.5877852522924731,-0.33422025984384196 -0.3632712640026806,0.3567627457812108 0.3632712640026804,0.3567627457812106" fill="#1e963e" stroke-linejoin="bevel" stroke-width="0.03" stroke="#000000"></polygon>
  <polygon points="0.0841927456086724,-0.11588137289060518 1.0352492619038258,0.5751016327344474 -0.14032124268112034,0.5751016327344474" fill="#f7ca36" stroke-linejoin="bevel" stroke-width="0.03" stroke="#000000" transform="matrix(0.8090169943749475,-0.5877852522924731,0.5877852522924731,0.8090169943749475,-0.5877852522924731,-0.19098300562505255)"></polygon>
  <polygon points="-0.9510565162951539,0.8342202598438422 -0.726542528005361,0.834220259843842 -0.27245344800201043,1.459220259843842 -0.6571638901489171,1.7387287570313157" fill="#5db3e8" stroke-linejoin="bevel" stroke-width="0.03" stroke="#000000" transform="matrix(-1,1.2246467991473532e-16,-1.2246467991473532e-16,-1,-1.3143277802978335,1.1909830056250525)"></polygon>
  <polygon points="0.726542528005361,0.3567627457812106 -0.13369617228912234,0.9817627457812106 -0.5877852522924729,0.3567627457812106" fill="#c91435" stroke-linejoin="bevel" stroke-width="0.03" stroke="#000000"></polygon>
  <polygon points="0.9510565162951533,0.834220259843842 0.5877852522924729,0.834220259843842 0.20307481014556622,1.1137287570313157 0.6571638901489169,1.7387287570313157" fill="#ba36ba" stroke-linejoin="bevel" stroke-width="0.03" stroke="#000000" transform="matrix(-1,1.2246467991473532e-16,-1.2246467991473532e-16,-1,1.3143277802978344,1.1909830056250525)"></polygon>
  <polygon points="0.6571638901489171,-0.5477457514062631 0.5877852522924731,-0.33422025984384196 -0.587785252292473,-0.33422025984384196 -0.6571638901489169,-0.5477457514062631 0.20307481014556644,-1.1727457514062631" fill="#ad5e0e" stroke-linejoin="bevel" stroke-width="0.03" stroke="#000000"></polygon>
 </g>
</svg>