
<svg xmlns="http://www.w3.org/2000/svg" version="1.1" xmlns:xlink="http://www.w3.org/1999/xlink" xmlns:svgjs="http://svgjs.dev/svgjs" viewBox="-0.9660254037844388 -1.1 5.22072594216369 2.2">
 <g>
  <polygon points="0.2886751345948129,-0.49999999999999994 0.8660254037844387,-0.49999999999999994 0.5773502691896257,0 0.8660254037844384,0.5000000000000004 0.2886751345948129,0.49999999999999994 -0.5773502691896257,-7.070501591499379e-17" fill="#1e963e" stroke-linejoin="bevel" stroke-width="0.03" stroke="#000000"></polygon>
  <polygon points="0.2886751345948129,-0.49999999999999994 -0.5773502691896257,-7.070501591499379e-17 -0.8660254037844387,-0.49999999999999994 -0.28867513459481275,-0.5 -0.14433756729740635,-0.75" fill="#c91435" stroke-linejoin="bevel" stroke-width="0.03" stroke="#000000"></polygon>
  <polygon points="0.2886751345948129,0.49999999999999994 -0.14433756729740665,0.75 -0.28867513459481314,0.4999999999999999 -0.8660254037844388,0.4999999999999997 -0.5773502691896257,-7.070501591499379e-17" fill="#5db3e8" stroke-linejoin="bevel" stroke-width="0.03" stroke="#000000"></polygon>
  <polygon points="6.123233995736766e-17,-1 0.2886751345948129,-0.49999999999999994 -0.14433756729740635,-0.75" fill="#ba36ba" stroke-linejoin="bevel" stroke-width="0.03" stroke="#000000"></polygon>
  <polygon points="0.2886751345948129,0.49999999999999994 -0.14433756729740665,0.75 -1.8369701987210297e-16,1" fill="#f7ca36" stroke-linejoin="bevel" stroke-width="0.03" stroke="#000000"></polygon>
 </g>
 <g transform="matrix(1,0,0,1,3,0)">
  <polygon points="0.2886751345948129,-0.49999999999999994 0.8660254037844387,-0.49999999999999994 0.5773502691896257,0 0.8660254037844384,0.5000000000000004 0.2886751345948129,0.49999999999999994 -0.5773502691896257,-7.070501591499379e-17" fill="#1e963e" stroke-linejoin="bevel" stroke-width="0.03" stroke="#000000"></polygon>
  <polygon points="1.7320508075688774,0 0.8660254037844388,0.4999999999999999 0.5773502691896258,0 1.154700538379252,-5.551115123125783e-17 1.2990381056766582,-0.25000000000000006" fill="#c91435" stroke-linejoin="bevel" stroke-width="0.03" stroke="#000000" transform="matrix(0.5000000000000001,-0.8660254037844386,0.8660254037844386,0.5000000000000001,0.2886751345948128,0.49999999999999994)"></polygon>
  <polygon points="1.7320508075688774,2.220446049250313e-16 1.299038105676658,0.2500000000000003 1.1547005383792515,1.6653345369377348e-16 0.5773502691896257,0 0.8660254037844388,-0.4999999999999998" fill="#5db3e8" stroke-linejoin="bevel" stroke-width="0.03" stroke="#000000" transform="matrix(0.5000000000000001,0.8660254037844386,-0.8660254037844386,0.5000000000000001,0.2886751345948128,-0.49999999999999994)"></polygon>
  <polygon points="6.123233995736766e-17,-1 0.2886751345948129,-0.49999999999999994 -0.14433756729740635,-0.75" fill="#ba36ba" stroke-linejoin="bevel" stroke-width="0.03" stroke="#000000" transform="matrix(-0.4999999999999998,0.8660254037844387,-0.8660254037844387,-0.4999999999999998,5.551115123125783e-17,-0.9999999999999998)"></polygon>
  <polygon points="0.2886751345948129,0.49999999999999994 -0.14433756729740665,0.75 -1.8369701987210297e-16,1" fill="#f7ca36" stroke-linejoin="bevel" stroke-width="0.03" stroke="#000000" transform="matrix(-0.4999999999999998,-0.8660254037844387,0.8660254037844387,-0.4999999999999998,5.551115123125783e-17,0.9999999999999998)"></polygon>
 </g>
</svg>