
<svg xmlns="http://www.w3.org/2000/svg" version="1.1" xmlns:xlink="http://www.w3.org/1999/xlink" xmlns:svgjs="http://svgjs.com/svgjs" viewBox="-0.1 -1.514213562373095 16.298076211353315 7.028427124746191">
 <defs id="defs-1"></defs>
 <g id="g-1" transform="matrix(1,0,0,1,0,0)">
  <polygon id="polygon-1" points="0,0 4,0 2,2" fill="#c91435" stroke-linejoin="bevel" stroke="#000000" stroke-width="0.06"></polygon>
  <polygon id="polygon-2" points="0,0 0,4 2,2" fill="#1e963e" stroke-linejoin="bevel" stroke="#000000" stroke-width="0.06"></polygon>
  <polygon id="polygon-3" points="4,0 4,2 3,1" fill="#ba36ba" stroke-linejoin="bevel" stroke="#000000" stroke-width="0.06"></polygon>
  <polygon id="polygon-4" points="2,2 3,1 4,2 3,3" fill="#f7ca36" stroke-linejoin="bevel" stroke="#000000" stroke-width="0.06"></polygon>
  <polygon id="polygon-5" points="2,2 3,3 1,3" fill="#ad5e0e" stroke-linejoin="bevel" stroke="#000000" stroke-width="0.06"></polygon>
  <polygon id="polygon-6" points="0,4 2,4 3,3 1,3" fill="#4287f5" stroke-linejoin="bevel" stroke="#000000" stroke-width="0.06"></polygon>
  <polygon id="polygon-7" points="4,4 4,2 2,4" fill="#5db3e8" stroke-linejoin="bevel" stroke="#000000" stroke-width="0.06"></polygon>
 </g>
 <g id="g-2" transform="matrix(1,0,0,1,10,-1.414213562373095)">
  <polygon id="polygon-8" points="0,4 4,4 2,6" fill="#c91435" stroke-linejoin="bevel" stroke="#000000" stroke-width="0.06" transform="matrix(0.7071067811865476,-0.7071067811865475,0.7071067811865475,0.7071067811865476,-1.6568542494923797,3.9999999999999996)"></polygon>
  <polygon id="polygon-9" points="2,2 2,6 4,4" fill="#1e963e" stroke-linejoin="bevel" stroke="#000000" stroke-width="0.06"></polygon>
  <polygon id="polygon-10" points="2,0 2,2 1,1" fill="#ba36ba" stroke-linejoin="bevel" stroke="#000000" stroke-width="0.06"></polygon>
  <polygon id="polygon-11" points="0,2 1,1 2,2 1,3" fill="#f7ca36" stroke-linejoin="bevel" stroke="#000000" stroke-width="0.06"></polygon>
  <polygon id="polygon-12" points="1,-1 2,0 0,0" fill="#ad5e0e" stroke-linejoin="bevel" stroke="#000000" stroke-width="0.06" transform="matrix(6.123233995736766e-17,1,-1,6.123233995736766e-17,0,0)"></polygon>
  <polygon id="polygon-13" points="4,6.82842712474619 6,6.82842712474619 7,5.82842712474619 5,5.82842712474619" fill="#4287f5" stroke-linejoin="bevel" stroke="#000000" stroke-width="0.06" transform="matrix(0.8660254037844387,-0.49999999999999994,0.49999999999999994,0.8660254037844387,-2.8783151775108493,2.9148357668252567)"></polygon>
  <polygon id="polygon-14" points="4,2 4,0 2,2" fill="#5db3e8" stroke-linejoin="bevel" stroke="#000000" stroke-width="0.06" transform="matrix(-0.7071067811865475,0.7071067811865476,-0.7071067811865476,-0.7071067811865475,4.82842712474619,1.9999999999999998)"></polygon>
 </g>
</svg>