
<svg xmlns="http://www.w3.org/2000/svg" version="1.1" xmlns:xlink="http://www.w3.org/1999/xlink" xmlns:svgjs="http://svgjs.dev/svgjs" viewBox="-0.1 -0.9966286684098153 2.666594355405663 1.1272319330351923">
 <g>
  <polygon points="0.25,-0.4330127018922193 0.5,-0.8660254037844386 0.75,-0.4330127018922193 0.462094355405663,-0.18590308632073282" fill="#c91435" stroke-linejoin="bevel" stroke-width="0.015" stroke="#000000"></polygon>
  <polygon points="0,0 0.25,-0.4330127018922193 0.462094355405663,-0.18590308632073282 0.2455,0" fill="#1e963e" stroke-linejoin="bevel" stroke-width="0.015" stroke="#000000"></polygon>
  <polygon points="1,0 0.75,-0.4330127018922193 0.5334056445943371,-0.24710961557148642 0.7455,0" fill="#4287f5" stroke-linejoin="bevel" stroke-width="0.015" stroke="#000000"></polygon>
  <polygon points="0.2455,0 0.7455,0 0.5334056445943371,-0.24710961557148642" fill="#f7ca36" stroke-linejoin="bevel" stroke-width="0.015" stroke="#000000"></polygon>
 </g>
 <g transform="matrix(1,0,0,1,1.5,0)">
  <polygon points="0.25,-0.2165063509461096 0.5,-0.6495190528383289 0.75,-0.2165063509461096 0.462094355405663,0.03060326462537688" fill="#c91435" stroke-linejoin="bevel" stroke-width="0.015" stroke="#000000"></polygon>
  <polygon points="-2.4031991673110173e-17,-0.2165063509461097 0.24999999999999997,-0.649519052838329 0.462094355405663,-0.40240943726684253 0.24549999999999997,-0.2165063509461097" fill="#1e963e" stroke-linejoin="bevel" stroke-width="0.015" stroke="#000000" transform="matrix(-1,1.2246467991473532e-16,-1.2246467991473532e-16,-1,0.49999999999999994,-0.8660254037844386)"></polygon>
  <polygon points="0.9999999999999999,-0.2165063509461097 0.7499999999999999,-0.649519052838329 0.533405644594337,-0.4636159665175961 0.7454999999999999,-0.2165063509461097" fill="#4287f5" stroke-linejoin="bevel" stroke-width="0.015" stroke="#000000" transform="matrix(-1,1.2246467991473532e-16,-1.2246467991473532e-16,-1,1.5,-0.8660254037844387)"></polygon>
  <polygon points="0.2545,-0.6495190528383289 0.7545000000000001,-0.6495190528383289 0.5424056445943372,-0.8966286684098154" fill="#f7ca36" stroke-linejoin="bevel" stroke-width="0.015" stroke="#000000"></polygon>
 </g>
</svg>