
<svg xmlns="http://www.w3.org/2000/svg" version="1.1" xmlns:xlink="http://www.w3.org/1999/xlink" xmlns:svgjs="http://svgjs.dev/svgjs" viewBox="-0.1 -1.514213562373095 16.298076211353315 7.02842712474619">
 <g>
  <polygon points="0,0 4,0 2,2" fill="#c91435" stroke-linejoin="bevel" stroke-width="0.06" stroke="#000000"></polygon>
  <polygon points="0,0 0,4 2,2" fill="#1e963e" stroke-linejoin="bevel" stroke-width="0.06" stroke="#000000"></polygon>
  <polygon points="4,0 4,2 3,1" fill="#ba36ba" stroke-linejoin="bevel" stroke-width="0.06" stroke="#000000"></polygon>
  <polygon points="2,2 3,1 4,2 3,3" fill="#f7ca36" stroke-linejoin="bevel" stroke-width="0.06" stroke="#000000"></polygon>
  <polygon points="2,2 3,3 1,3" fill="#ad5e0e" stroke-linejoin="bevel" stroke-width="0.06" stroke="#000000"></polygon>
  <polygon points="0,4 2,4 3,3 1,3" fill="#4287f5" stroke-linejoin="bevel" stroke-width="0.06" stroke="#000000"></polygon>
  <polygon points="4,4 4,2 2,4" fill="#5db3e8" stroke-linejoin="bevel" stroke-width="0.06" stroke="#000000"></polygon>
 </g>
 <g transform="matrix(1,0,0,1,10,0)">
  <polygon points="0.9999999999999998,3 5,3 3,5" fill="#c91435" stroke-linejoin="bevel" stroke-width="0.06" stroke="#000000" transform="matrix(0.7071067811865476,-0.7071067811865475,0.7071067811865475,0.7071067811865476,-1.6568542494923797,3.9999999999999996)"></polygon>
  <polygon points="2,0.5857864376269051 2,4.585786437626905 4,2.585786437626905" fill="#1e963e" stroke-linejoin="bevel" stroke-width="0.06" stroke="#000000"></polygon>
  <polygon points="2,-1.414213562373095 2,0.5857864376269051 1,-0.4142135623730949" fill="#ba36ba" stroke-linejoin="bevel" stroke-width="0.06" stroke="#000000"></polygon>
  <polygon points="0,0.5857864376269051 1,-0.4142135623730949 2,0.5857864376269051 1,1.585786437626905" fill="#f7ca36" stroke-linejoin="bevel" stroke-width="0.06" stroke="#000000"></polygon>
  <polygon points="-0.4142135623730949,-1 0.5857864376269051,0 -1.414213562373095,0" fill="#ad5e0e" stroke-linejoin="bevel" stroke-width="0.06" stroke="#000000" transform="matrix(6.123233995736766e-17,1,-1,6.123233995736766e-17,0,0)"></polygon>
  <polygon points="4.707106781186547,5.6036822533546005 6.707106781186547,5.6036822533546005 7.707106781186547,4.6036822533546005 5.707106781186547,4.6036822533546005" fill="#4287f5" stroke-linejoin="bevel" stroke-width="0.06" stroke="#000000" transform="matrix(0.8660254037844387,-0.49999999999999994,0.49999999999999994,0.8660254037844387,-2.8783151775108493,2.9148357668252567)"></polygon>
  <polygon points="3,3 3,1 1,3" fill="#5db3e8" stroke-linejoin="bevel" stroke-width="0.06" stroke="#000000" transform="matrix(-0.7071067811865475,0.7071067811865476,-0.7071067811865476,-0.7071067811865475,4.82842712474619,1.9999999999999998)"></polygon>
 </g>
</svg>