
<svg xmlns="http://www.w3.org/2000/svg" version="1.1" xmlns:xlink="http://www.w3.org/1999/xlink" xmlns:svgjs="http://svgjs.dev/svgjs" viewBox="-0.15000000000000002 -6.1499999999999995 6.3 6.3">
 <circle r="0.05" cx="0" cy="0"></circle>
 <circle r="0.05" cx="0" cy="-1"></circle>
 <circle r="0.05" cx="0" cy="-2"></circle>
 <circle r="0.05" cx="0" cy="-3"></circle>
 <circle r="0.05" cx="0" cy="-4"></circle>
 <circle r="0.05" cx="0" cy="-5"></circle>
 <circle r="0.05" cx="0" cy="-6"></circle>
 <circle r="0.05" cx="1" cy="0"></circle>
 <circle r="0.05" cx="1" cy="-1"></circle>
 <circle r="0.05" cx="1" cy="-2"></circle>
 <circle r="0.05" cx="1" cy="-3"></circle>
 <circle r="0.05" cx="1" cy="-4"></circle>
 <circle r="0.05" cx="1" cy="-5"></circle>
 <circle r="0.05" cx="1" cy="-6"></circle>
 <circle r="0.05" cx="2" cy="0"></circle>
 <circle r="0.05" cx="2" cy="-1"></circle>
 <circle r="0.05" cx="2" cy="-2"></circle>
 <circle r="0.05" cx="2" cy="-3"></circle>
 <circle r="0.05" cx="2" cy="-4"></circle>
 <circle r="0.05" cx="2" cy="-5"></circle>
 <circle r="0.05" cx="2" cy="-6"></circle>
 <circle r="0.05" cx="3" cy="0"></circle>
 <circle r="0.05" cx="3" cy="-1"></circle>
 <circle r="0.05" cx="3" cy="-2"></circle>
 <circle r="0.05" cx="3" cy="-3"></circle>
 <circle r="0.05" cx="3" cy="-4"></circle>
 <circle r="0.05" cx="3" cy="-5"></circle>
 <circle r="0.05" cx="3" cy="-6"></circle>
 <circle r="0.05" cx="4" cy="0"></circle>
 <circle r="0.05" cx="4" cy="-1"></circle>
 <circle r="0.05" cx="4" cy="-2"></circle>
 <circle r="0.05" cx="4" cy="-3"></circle>
 <circle r="0.05" cx="4" cy="-4"></circle>
 <circle r="0.05" cx="4" cy="-5"></circle>
 <circle r="0.05" cx="4" cy="-6"></circle>
 <circle r="0.05" cx="5" cy="0"></circle>
 <circle r="0.05" cx="5" cy="-1"></circle>
 <circle r="0.05" cx="5" cy="-2"></circle>
 <circle r="0.05" cx="5" cy="-3"></circle>
 <circle r="0.05" cx="5" cy="-4"></circle>
 <circle r="0.05" cx="5" cy="-5"></circle>
 <circle r="0.05" cx="5" cy="-6"></circle>
 <circle r="0.05" cx="6" cy="0"></circle>
 <circle r="0.05" cx="6" cy="-1"></circle>
 <circle r="0.05" cx="6" cy="-2"></circle>
 <circle r="0.05" cx="6" cy="-3"></circle>
 <circle r="0.05" cx="6" cy="-4"></circle>
 <circle r="0.05" cx="6" cy="-5"></circle>
 <circle r="0.05" cx="6" cy="-6"></circle>
 <line x1="0" y1="0" x2="6" y2="0" stroke-width="0.04" stroke="#000000"></line>
 <line x1="0" y1="0" x2="0" y2="-6" stroke-width="0.04" stroke="#000000"></line>
 <line x1="0" y1="0" x2="6" y2="-6" stroke-width="0.02" stroke="#000000"></line>
 <defs>
  <marker markerWidth="5" markerHeight="5" refX="2.5" refY="2.5" viewBox="0 0 5 5" orient="auto" id="SvgjsMarker1016">
   <polygon points="0,0 5,2.5 0,5" fill="#0088ff"></polygon>
  </marker>
  <marker markerWidth="5" markerHeight="5" refX="2.5" refY="2.5" viewBox="0 0 5 5" orient="auto" id="SvgjsMarker1017">
   <polygon points="0,0 5,2.5 0,5" fill="#0088ff"></polygon>
  </marker>
  <marker markerWidth="5" markerHeight="5" refX="2.5" refY="2.5" viewBox="0 0 5 5" orient="auto" id="SvgjsMarker1018">
   <polygon points="0,0 5,2.5 0,5" fill="#0088ff"></polygon>
  </marker>
  <marker markerWidth="5" markerHeight="5" refX="2.5" refY="2.5" viewBox="0 0 5 5" orient="auto" id="SvgjsMarker1019">
   <polygon points="0,0 5,2.5 0,5" fill="#0088ff"></polygon>
  </marker>
  <marker markerWidth="5" markerHeight="5" refX="2.5" refY="2.5" viewBox="0 0 5 5" orient="auto" id="SvgjsMarker1020">
   <polygon points="0,0 5,2.5 0,5" fill="#0088ff"></polygon>
  </marker>
  <marker markerWidth="5" markerHeight="5" refX="2.5" refY="2.5" viewBox="0 0 5 5" orient="auto" id="SvgjsMarker1021">
   <polygon points="0,0 5,2.5 0,5" fill="#0088ff"></polygon>
  </marker>
  <marker markerWidth="5" markerHeight="5" refX="2.5" refY="2.5" viewBox="0 0 5 5" orient="auto" id="SvgjsMarker1022">
   <polygon points="0,0 5,2.5 0,5" fill="#0088ff"></polygon>
  </marker>
  <marker markerWidth="5" markerHeight="5" refX="2.5" refY="2.5" viewBox="0 0 5 5" orient="auto" id="SvgjsMarker1023">
   <polygon points="0,0 5,2.5 0,5" fill="#0088ff"></polygon>
  </marker>
  <marker markerWidth="5" markerHeight="5" refX="2.5" refY="2.5" viewBox="0 0 5 5" orient="auto" id="SvgjsMarker1024">
   <polygon points="0,0 5,2.5 0,5" fill="#0000ff"></polygon>
  </marker>
  <marker markerWidth="5" markerHeight="5" refX="2.5" refY="2.5" viewBox="0 0 5 5" orient="auto" id="SvgjsMarker1025">
   <polygon points="0,0 5,2.5 0,5" fill="#0000ff"></polygon>
  </marker>
  <marker markerWidth="5" markerHeight="5" refX="2.5" refY="2.5" viewBox="0 0 5 5" orient="auto" id="SvgjsMarker1026">
   <polygon points="0,0 5,2.5 0,5" fill="#0000ff"></polygon>
  </marker>
  <marker markerWidth="5" markerHeight="5" refX="2.5" refY="2.5" viewBox="0 0 5 5" orient="auto" id="SvgjsMarker1027">
   <polygon points="0,0 5,2.5 0,5" fill="#0000ff"></polygon>
  </marker>
  <marker markerWidth="5" markerHeight="5" refX="2.5" refY="2.5" viewBox="0 0 5 5" orient="auto" id="SvgjsMarker1028">
   <polygon points="0,0 5,2.5 0,5" fill="#0000ff"></polygon>
  </marker>
  <marker markerWidth="5" markerHeight="5" refX="2.5" refY="2.5" viewBox="0 0 5 5" orient="auto" id="SvgjsMarker1029">
   <polygon points="0,0 5,2.5 0,5" fill="#0000ff"></polygon>
  </marker>
  <marker markerWidth="5" markerHeight="5" refX="2.5" refY="2.5" viewBox="0 0 5 5" orient="auto" id="SvgjsMarker1030">
   <polygon points="0,0 5,2.5 0,5" fill="#0000ff"></polygon>
  </marker>
  <marker markerWidth="5" markerHeight="5" refX="2.5" refY="2.5" viewBox="0 0 5 5" orient="auto" id="SvgjsMarker1031">
   <polygon points="0,0 5,2.5 0,5" fill="#8800ff"></polygon>
  </marker>
  <marker markerWidth="5" markerHeight="5" refX="2.5" refY="2.5" viewBox="0 0 5 5" orient="auto" id="SvgjsMarker1032">
   <polygon points="0,0 5,2.5 0,5" fill="#8800ff"></polygon>
  </marker>
  <marker markerWidth="5" markerHeight="5" refX="2.5" refY="2.5" viewBox="0 0 5 5" orient="auto" id="SvgjsMarker1033">
   <polygon points="0,0 5,2.5 0,5" fill="#8800ff"></polygon>
  </marker>
  <marker markerWidth="5" markerHeight="5" refX="2.5" refY="2.5" viewBox="0 0 5 5" orient="auto" id="SvgjsMarker1034">
   <polygon points="0,0 5,2.5 0,5" fill="#8800ff"></polygon>
  </marker>
  <marker markerWidth="5" markerHeight="5" refX="2.5" refY="2.5" viewBox="0 0 5 5" orient="auto" id="SvgjsMarker1035">
   <polygon points="0,0 5,2.5 0,5" fill="#8800ff"></polygon>
  </marker>
  <marker markerWidth="5" markerHeight="5" refX="2.5" refY="2.5" viewBox="0 0 5 5" orient="auto" id="SvgjsMarker1036">
   <polygon points="0,0 5,2.5 0,5" fill="#8800ff"></polygon>
  </marker>
  <marker markerWidth="5" markerHeight="5" refX="2.5" refY="2.5" viewBox="0 0 5 5" orient="auto" id="SvgjsMarker1037">
   <polygon points="0,0 5,2.5 0,5" fill="#8800ff"></polygon>
  </marker>
 </defs>
 <line x1="1.93" y1="-0.1" x2="1.93" y2="-0.8" stroke-width="0.05" stroke="#0088ff" marker-end="url(#SvgjsMarker1016)"></line>
 <line x1="2.03" y1="-0.83" x2="2.73" y2="-0.13" stroke-width="0.05" stroke="#0088ff" marker-end="url(#SvgjsMarker1017)"></line>
 <line x1="2.93" y1="-0.1" x2="2.93" y2="-0.8" stroke-width="0.05" stroke="#0088ff" marker-end="url(#SvgjsMarker1018)"></line>
 <line x1="3.0300000000000002" y1="-0.83" x2="3.73" y2="-0.13" stroke-width="0.05" stroke="#0088ff" marker-end="url(#SvgjsMarker1019)"></line>
 <line x1="3.93" y1="-0.1" x2="3.93" y2="-0.8" stroke-width="0.05" stroke="#0088ff" marker-end="url(#SvgjsMarker1020)"></line>
 <line x1="4.03" y1="-0.83" x2="4.7299999999999995" y2="-0.13" stroke-width="0.05" stroke="#0088ff" marker-end="url(#SvgjsMarker1021)"></line>
 <line x1="4.93" y1="-0.1" x2="4.93" y2="-0.8" stroke-width="0.05" stroke="#0088ff" marker-end="url(#SvgjsMarker1022)"></line>
 <line x1="5.029999999999999" y1="-0.83" x2="5.7299999999999995" y2="-0.13" stroke-width="0.05" stroke="#0088ff" marker-end="url(#SvgjsMarker1023)"></line>
 <line x1="2" y1="-0.1" x2="2" y2="-0.8" stroke-width="0.05" stroke="#0000ff" marker-end="url(#SvgjsMarker1024)"></line>
 <line x1="2.1" y1="-0.9" x2="2.8" y2="-0.2" stroke-width="0.05" stroke="#0000ff" marker-end="url(#SvgjsMarker1025)"></line>
 <line x1="3" y1="-0.1" x2="3" y2="-0.8" stroke-width="0.05" stroke="#0000ff" marker-end="url(#SvgjsMarker1026)"></line>
 <line x1="3.1" y1="-0.9" x2="3.8" y2="-0.2" stroke-width="0.05" stroke="#0000ff" marker-end="url(#SvgjsMarker1027)"></line>
 <line x1="4" y1="-0.1" x2="4" y2="-0.8" stroke-width="0.05" stroke="#0000ff" marker-end="url(#SvgjsMarker1028)"></line>
 <line x1="4" y1="-1.1" x2="4" y2="-1.8" stroke-width="0.05" stroke="#0000ff" marker-end="url(#SvgjsMarker1029)"></line>
 <line x1="4.1" y1="-1.9" x2="5.8" y2="-0.2" stroke-width="0.05" stroke="#0000ff" marker-end="url(#SvgjsMarker1030)"></line>
 <line x1="2.07" y1="-0.1" x2="2.07" y2="-0.8" stroke-width="0.05" stroke="#8800ff" marker-end="url(#SvgjsMarker1031)"></line>
 <line x1="2.17" y1="-0.9700000000000001" x2="2.8699999999999997" y2="-0.27" stroke-width="0.05" stroke="#8800ff" marker-end="url(#SvgjsMarker1032)"></line>
 <line x1="3.07" y1="-0.1" x2="3.07" y2="-0.8" stroke-width="0.05" stroke="#8800ff" marker-end="url(#SvgjsMarker1033)"></line>
 <line x1="3.07" y1="-1.1" x2="3.07" y2="-1.8" stroke-width="0.05" stroke="#8800ff" marker-end="url(#SvgjsMarker1034)"></line>
 <line x1="3.17" y1="-1.9699999999999998" x2="4.87" y2="-0.27" stroke-width="0.05" stroke="#8800ff" marker-end="url(#SvgjsMarker1035)"></line>
 <line x1="5.07" y1="-0.1" x2="5.07" y2="-0.8" stroke-width="0.05" stroke="#8800ff" marker-end="url(#SvgjsMarker1036)"></line>
 <line x1="5.17" y1="-0.9700000000000001" x2="5.87" y2="-0.27" stroke-width="0.05" stroke="#8800ff" marker-end="url(#SvgjsMarker1037)"></line>
</svg>