<?xml version="1.0" encoding="UTF-8"?>
<svg xmlns="http://www.w3.org/2000/svg" xmlns:xlink="http://www.w3.org/1999/xlink" width="353pt" height="353pt" viewBox="0 0 353 353" version="1.1">
<g id="surface37">
<path style="fill:none;stroke-width:7.18;stroke-linecap:square;stroke-linejoin:miter;stroke:rgb(66.665649%,33.332825%,66.665649%);stroke-opacity:1;stroke-miterlimit:3.25;" d="M 88.84375 340.867188 L 88.84375 184.210938 " transform="matrix(1,0,0,1,-66,-5)"/>
<path style="fill:none;stroke-width:7.18;stroke-linecap:square;stroke-linejoin:miter;stroke:rgb(0%,0%,0%);stroke-opacity:1;stroke-miterlimit:3.25;" d="M 88.84375 184.210938 L 88.84375 27.558594 " transform="matrix(1,0,0,1,-66,-5)"/>
<path style="fill:none;stroke-width:7.18;stroke-linecap:square;stroke-linejoin:miter;stroke:rgb(66.665649%,33.332825%,66.665649%);stroke-opacity:1;stroke-miterlimit:3.25;" d="M 88.84375 27.558594 L 323.828125 27.558594 " transform="matrix(1,0,0,1,-66,-5)"/>
<path style="fill:none;stroke-width:7.18;stroke-linecap:square;stroke-linejoin:miter;stroke:rgb(0%,0%,0%);stroke-opacity:1;stroke-miterlimit:3.25;" d="M 323.828125 27.558594 L 402.15625 27.558594 " transform="matrix(1,0,0,1,-66,-5)"/>
<path style="fill:none;stroke-width:7.18;stroke-linecap:square;stroke-linejoin:miter;stroke:rgb(0%,0%,0%);stroke-opacity:1;stroke-miterlimit:3.25;" d="M 402.15625 27.558594 L 402.15625 236.429688 " transform="matrix(1,0,0,1,-66,-5)"/>
<path style="fill:none;stroke-width:7.18;stroke-linecap:square;stroke-linejoin:miter;stroke:rgb(0%,0%,0%);stroke-opacity:1;stroke-miterlimit:3.25;" d="M 402.15625 236.429688 L 402.15625 340.867188 " transform="matrix(1,0,0,1,-66,-5)"/>
<path style="fill:none;stroke-width:7.18;stroke-linecap:square;stroke-linejoin:miter;stroke:rgb(66.665649%,33.332825%,66.665649%);stroke-opacity:1;stroke-miterlimit:3.25;" d="M 402.15625 340.867188 L 88.84375 340.867188 " transform="matrix(1,0,0,1,-66,-5)"/>
<path style="fill:none;stroke-width:7.18;stroke-linecap:square;stroke-linejoin:miter;stroke:rgb(0%,0%,0%);stroke-opacity:1;stroke-miterlimit:3.25;" d="M 88.84375 340.867188 L 245.5 210.320313 " transform="matrix(1,0,0,1,-66,-5)"/>
<path style="fill:none;stroke-width:7.18;stroke-linecap:square;stroke-linejoin:miter;stroke:rgb(66.665649%,33.332825%,66.665649%);stroke-opacity:1;stroke-miterlimit:3.25;" d="M 245.5 210.320313 L 402.15625 340.867188 " transform="matrix(1,0,0,1,-66,-5)"/>
<path style="fill:none;stroke-width:7.18;stroke-linecap:square;stroke-linejoin:miter;stroke:rgb(66.665649%,33.332825%,66.665649%);stroke-opacity:1;stroke-miterlimit:3.25;" d="M 245.5 210.320313 L 88.84375 184.210938 " transform="matrix(1,0,0,1,-66,-5)"/>
<path style="fill:none;stroke-width:7.18;stroke-linecap:square;stroke-linejoin:miter;stroke:rgb(0%,0%,0%);stroke-opacity:1;stroke-miterlimit:3.25;" d="M 245.5 210.320313 L 402.15625 236.429688 " transform="matrix(1,0,0,1,-66,-5)"/>
<path style="fill:none;stroke-width:7.18;stroke-linecap:square;stroke-linejoin:miter;stroke:rgb(0%,0%,0%);stroke-opacity:1;stroke-miterlimit:3.25;" d="M 402.15625 236.429688 L 323.828125 27.558594 " transform="matrix(1,0,0,1,-66,-5)"/>
<path style="fill:none;stroke-width:7.18;stroke-linecap:square;stroke-linejoin:miter;stroke:rgb(66.665649%,33.332825%,66.665649%);stroke-opacity:1;stroke-miterlimit:3.25;" d="M 323.828125 27.558594 L 88.84375 184.210938 " transform="matrix(1,0,0,1,-66,-5)"/>
<path style="fill-rule:evenodd;fill:rgb(0%,0%,99.998474%);fill-opacity:1;stroke-width:2;stroke-linecap:square;stroke-linejoin:miter;stroke:rgb(0%,0%,0%);stroke-opacity:1;stroke-miterlimit:3.25;" d="M 104.664063 341 C 104.664063 336.84375 103.015625 332.859375 100.078125 329.921875 C 97.140625 326.984375 93.15625 325.335938 89 325.335938 C 84.84375 325.335938 80.859375 326.984375 77.921875 329.921875 C 74.984375 332.859375 73.335938 336.84375 73.335938 341 C 73.335938 345.15625 74.984375 349.140625 77.921875 352.078125 C 80.859375 355.015625 84.84375 356.664063 89 356.664063 C 93.15625 356.664063 97.140625 355.015625 100.078125 352.078125 C 103.015625 349.140625 104.664063 345.15625 104.664063 341 Z " transform="matrix(1,0,0,1,-66,-5)"/>
<path style="fill-rule:evenodd;fill:rgb(99.998474%,0%,0%);fill-opacity:1;stroke-width:2;stroke-linecap:square;stroke-linejoin:miter;stroke:rgb(0%,0%,0%);stroke-opacity:1;stroke-miterlimit:3.25;" d="M 417.664063 341 C 417.664063 336.84375 416.015625 332.859375 413.078125 329.921875 C 410.140625 326.984375 406.15625 325.335938 402 325.335938 C 397.84375 325.335938 393.859375 326.984375 390.921875 329.921875 C 387.984375 332.859375 386.335938 336.84375 386.335938 341 C 386.335938 345.15625 387.984375 349.140625 390.921875 352.078125 C 393.859375 355.015625 397.84375 356.664063 402 356.664063 C 406.15625 356.664063 410.140625 355.015625 413.078125 352.078125 C 416.015625 349.140625 417.664063 345.15625 417.664063 341 Z " transform="matrix(1,0,0,1,-66,-5)"/>
<path style="fill-rule:evenodd;fill:rgb(99.998474%,0%,0%);fill-opacity:1;stroke-width:2;stroke-linecap:square;stroke-linejoin:miter;stroke:rgb(0%,0%,0%);stroke-opacity:1;stroke-miterlimit:3.25;" d="M 104.664063 28 C 104.664063 23.84375 103.015625 19.859375 100.078125 16.921875 C 97.140625 13.984375 93.15625 12.335938 89 12.335938 C 84.84375 12.335938 80.859375 13.984375 77.921875 16.921875 C 74.984375 19.859375 73.335938 23.84375 73.335938 28 C 73.335938 32.15625 74.984375 36.140625 77.921875 39.078125 C 80.859375 42.015625 84.84375 43.664063 89 43.664063 C 93.15625 43.664063 97.140625 42.015625 100.078125 39.078125 C 103.015625 36.140625 104.664063 32.15625 104.664063 28 Z " transform="matrix(1,0,0,1,-66,-5)"/>
<path style="fill-rule:evenodd;fill:rgb(0%,99.998474%,0%);fill-opacity:1;stroke-width:2;stroke-linecap:square;stroke-linejoin:miter;stroke:rgb(0%,0%,0%);stroke-opacity:1;stroke-miterlimit:3.25;" d="M 417.664063 28 C 417.664063 23.84375 416.015625 19.859375 413.078125 16.921875 C 410.140625 13.984375 406.15625 12.335938 402 12.335938 C 397.84375 12.335938 393.859375 13.984375 390.921875 16.921875 C 387.984375 19.859375 386.335938 23.84375 386.335938 28 C 386.335938 32.15625 387.984375 36.140625 390.921875 39.078125 C 393.859375 42.015625 397.84375 43.664063 402 43.664063 C 406.15625 43.664063 410.140625 42.015625 413.078125 39.078125 C 416.015625 36.140625 417.664063 32.15625 417.664063 28 Z " transform="matrix(1,0,0,1,-66,-5)"/>
<path style="fill-rule:evenodd;fill:rgb(99.998474%,0%,0%);fill-opacity:1;stroke-width:2;stroke-linecap:square;stroke-linejoin:miter;stroke:rgb(0%,0%,0%);stroke-opacity:1;stroke-miterlimit:3.25;" d="M 104.664063 184 C 104.664063 179.84375 103.015625 175.859375 100.078125 172.921875 C 97.140625 169.984375 93.15625 168.335938 89 168.335938 C 84.84375 168.335938 80.859375 169.984375 77.921875 172.921875 C 74.984375 175.859375 73.335938 179.84375 73.335938 184 C 73.335938 188.15625 74.984375 192.140625 77.921875 195.078125 C 80.859375 198.015625 84.84375 199.664063 89 199.664063 C 93.15625 199.664063 97.140625 198.015625 100.078125 195.078125 C 103.015625 192.140625 104.664063 188.15625 104.664063 184 Z " transform="matrix(1,0,0,1,-66,-5)"/>
<path style="fill-rule:evenodd;fill:rgb(0%,0%,99.998474%);fill-opacity:1;stroke-width:2;stroke-linecap:square;stroke-linejoin:miter;stroke:rgb(0%,0%,0%);stroke-opacity:1;stroke-miterlimit:3.25;" d="M 339.664063 28 C 339.664063 23.84375 338.015625 19.859375 335.078125 16.921875 C 332.140625 13.984375 328.15625 12.335938 324 12.335938 C 319.84375 12.335938 315.859375 13.984375 312.921875 16.921875 C 309.984375 19.859375 308.335938 23.84375 308.335938 28 C 308.335938 32.15625 309.984375 36.140625 312.921875 39.078125 C 315.859375 42.015625 319.84375 43.664063 324 43.664063 C 328.15625 43.664063 332.140625 42.015625 335.078125 39.078125 C 338.015625 36.140625 339.664063 32.15625 339.664063 28 Z " transform="matrix(1,0,0,1,-66,-5)"/>
<path style="fill-rule:evenodd;fill:rgb(0%,99.998474%,0%);fill-opacity:1;stroke-width:2;stroke-linecap:square;stroke-linejoin:miter;stroke:rgb(0%,0%,0%);stroke-opacity:1;stroke-miterlimit:3.25;" d="M 417.664063 236 C 417.664063 231.84375 416.015625 227.859375 413.078125 224.921875 C 410.140625 221.984375 406.15625 220.335938 402 220.335938 C 397.84375 220.335938 393.859375 221.984375 390.921875 224.921875 C 387.984375 227.859375 386.335938 231.84375 386.335938 236 C 386.335938 240.15625 387.984375 244.140625 390.921875 247.078125 C 393.859375 250.015625 397.84375 251.664063 402 251.664063 C 406.15625 251.664063 410.140625 250.015625 413.078125 247.078125 C 416.015625 244.140625 417.664063 240.15625 417.664063 236 Z " transform="matrix(1,0,0,1,-66,-5)"/>
<path style="fill-rule:evenodd;fill:rgb(0%,0%,99.998474%);fill-opacity:1;stroke-width:2;stroke-linecap:square;stroke-linejoin:miter;stroke:rgb(0%,0%,0%);stroke-opacity:1;stroke-miterlimit:3.25;" d="M 260.664063 210 C 260.664063 205.84375 259.015625 201.859375 256.078125 198.921875 C 253.140625 195.984375 249.15625 194.335938 245 194.335938 C 240.84375 194.335938 236.859375 195.984375 233.921875 198.921875 C 230.984375 201.859375 229.335938 205.84375 229.335938 210 C 229.335938 214.15625 230.984375 218.140625 233.921875 221.078125 C 236.859375 224.015625 240.84375 225.664063 245 225.664063 C 249.15625 225.664063 253.140625 224.015625 256.078125 221.078125 C 259.015625 218.140625 260.664063 214.15625 260.664063 210 Z " transform="matrix(1,0,0,1,-66,-5)"/>
</g>
</svg>
