<svg xmlns="http://www.w3.org/2000/svg" version="1.1" xmlns:xlink="http://www.w3.org/1999/xlink" xmlns:svgjs="http://svgjs.com/svgjs" viewBox="-0.1 -0.9966286684098153 2.666594355405663 1.1272319330351923"><svg id="SvgjsSvg1002" width="2" height="0" focusable="false" style="overflow:hidden;top:-100%;left:-100%;position:absolute;opacity:0"><polyline id="SvgjsPolyline1003" points="0.2545,0 0.7545000000000001,0 0.5424056445943372,-0.24710961557148642"></polyline><path id="SvgjsPath1004" d=""></path></svg><g id="SvgjsG1022" transform="matrix(1,0,0,1,0,0)"><polygon id="SvgjsPolygon1023" points="0.25,-0.4330127018922193 0.5,-0.8660254037844386 0.75,-0.4330127018922193 0.462094355405663,-0.18590308632073282" fill="#c91435" stroke-linejoin="bevel" stroke="#000000" stroke-width="0.015"></polygon><polygon id="SvgjsPolygon1024" points="0,0 0.25,-0.4330127018922193 0.462094355405663,-0.18590308632073282 0.2455,0" fill="#1e963e" stroke-linejoin="bevel" stroke="#000000" stroke-width="0.015"></polygon><polygon id="SvgjsPolygon1025" points="1,0 0.75,-0.4330127018922193 0.5334056445943371,-0.24710961557148642 0.7455,0" fill="#4287f5" stroke-linejoin="bevel" stroke="#000000" stroke-width="0.015"></polygon><polygon id="SvgjsPolygon1026" points="0.2455,0 0.7455,0 0.5334056445943371,-0.24710961557148642" fill="#f7ca36" stroke-linejoin="bevel" stroke="#000000" stroke-width="0.015"></polygon></g><g id="SvgjsG1027" transform="matrix(1,0,0,1,1.5,0.2165063509461097)"><polygon id="SvgjsPolygon1028" points="0.25,-0.4330127018922193 0.5,-0.8660254037844386 0.75,-0.4330127018922193 0.462094355405663,-0.18590308632073282" fill="#c91435" stroke-linejoin="bevel" stroke="#000000" stroke-width="0.015"></polygon><polygon id="SvgjsPolygon1029" points="0,0 0.25,-0.4330127018922193 0.462094355405663,-0.18590308632073282 0.2455,0" fill="#1e963e" stroke-linejoin="bevel" stroke="#000000" stroke-width="0.015" transform="matrix(-1,1.2246467991473532e-16,-1.2246467991473532e-16,-1,0.49999999999999994,-0.8660254037844386)"></polygon><polygon id="SvgjsPolygon1030" points="1,0 0.75,-0.4330127018922193 0.5334056445943371,-0.24710961557148642 0.7455,0" fill="#4287f5" stroke-linejoin="bevel" stroke="#000000" stroke-width="0.015" transform="matrix(-1,1.2246467991473532e-16,-1.2246467991473532e-16,-1,1.5,-0.8660254037844387)"></polygon><polygon id="SvgjsPolygon1031" points="0.2545,-0.8660254037844386 0.7545000000000001,-0.8660254037844386 0.5424056445943372,-1.113135019355925" fill="#f7ca36" stroke-linejoin="bevel" stroke="#000000" stroke-width="0.015"></polygon></g></svg>