<svg xmlns="http://www.w3.org/2000/svg" version="1.1" xmlns:xlink="http://www.w3.org/1999/xlink" xmlns:svgjs="http://svgjs.com/svgjs" viewBox="-0.1 -0.6 18.4 7.1000000000000005"><svg id="SvgjsSvg1002" width="2" height="0" focusable="false" style="overflow:hidden;top:-100%;left:-100%;position:absolute;opacity:0"><polyline id="SvgjsPolyline1003" points="8.2,4 3.2,6 1.2,4"></polyline><path id="SvgjsPath1004" d=""></path></svg><g id="SvgjsG1058"><polygon id="SvgjsPolygon1059" points="0,0 5,1 8,4 3,6 1,4 2,2" fill="#f7ca36" stroke="#000000" stroke-width="0.08"></polygon><line id="SvgjsLine1060" x1="5" y1="1" x2="2" y2="2" stroke-dasharray="0.2" stroke="#000000" stroke-width="0.05"></line><line id="SvgjsLine1061" x1="5" y1="1" x2="1" y2="4" stroke-dasharray="0.2" stroke="#000000" stroke-width="0.05"></line><line id="SvgjsLine1062" x1="8" y1="4" x2="1" y2="4" stroke-dasharray="0.2" stroke="#000000" stroke-width="0.05"></line></g><g id="SvgjsG1063" transform="matrix(1,0,0,1,10,0)"><polygon id="SvgjsPolygon1064" points="-0.3,-0.5 4.7,0.5 1.7,1.5" fill="#f7ca36" stroke="#000000" stroke-width="0.08"></polygon><polygon id="SvgjsPolygon1065" points="4.8,0.9 0.8,3.9 1.8,1.9" fill="#f7ca36" stroke="#000000" stroke-width="0.08"></polygon><polygon id="SvgjsPolygon1066" points="5.2,1 8.2,4 1.2,4" fill="#f7ca36" stroke="#000000" stroke-width="0.08"></polygon><polygon id="SvgjsPolygon1067" points="8.2,4.4 3.2,6.4 1.2,4.4" fill="#f7ca36" stroke="#000000" stroke-width="0.08"></polygon></g></svg>