<svg xmlns="http://www.w3.org/2000/svg" version="1.1" xmlns:xlink="http://www.w3.org/1999/xlink" xmlns:svgjs="http://svgjs.com/svgjs" viewBox="-0.25 -1.25 12.5 4.5"><svg id="SvgjsSvg1002" style="overflow: hidden; top: -100%; left: -100%; position: absolute; opacity: 0;" width="2" height="0" focusable="false"><polyline id="SvgjsPolyline1003" points=""></polyline><path id="SvgjsPath1004" d=""></path></svg><g id="SvgjsG1384"><line id="SvgjsLine1397" x1="4" y1="2" x2="2" y2="2" stroke="#000000" stroke-width="0.1"></line><line id="SvgjsLine1395" x1="2" y1="2" x2="0" y2="1" stroke="#000000" stroke-width="0.1"></line><line id="SvgjsLine1393" x1="4" y1="1" x2="2" y2="1" stroke="#000000" stroke-width="0.1"></line><line id="SvgjsLine1391" x1="2" y1="1" x2="0" y2="1" stroke="#000000" stroke-width="0.1"></line><line id="SvgjsLine1389" x1="4" y1="0" x2="2" y2="0" stroke="#000000" stroke-width="0.1"></line><line id="SvgjsLine1387" x1="2" y1="0" x2="0" y2="1" stroke="#000000" stroke-width="0.1"></line><circle id="SvgjsCircle1385" r="0.25" cx="0" cy="1"></circle><circle id="SvgjsCircle1386" r="0.25" cx="2" cy="0"></circle><circle id="SvgjsCircle1388" r="0.25" cx="4" cy="0"></circle><circle id="SvgjsCircle1390" r="0.25" cx="2" cy="1"></circle><circle id="SvgjsCircle1392" r="0.25" cx="4" cy="1"></circle><circle id="SvgjsCircle1394" r="0.25" cx="2" cy="2"></circle><circle id="SvgjsCircle1396" r="0.25" cx="4" cy="2"></circle><path id="SvgjsPath1414" d="M 4.3,1.3 l -0.6,-0.6 m 0,0.6 l 0.6,-0.6" stroke="#bf0000" stroke-width="0.1"></path></g><g id="SvgjsG1398" transform="matrix(1,0,0,1,8,-1)"><line id="SvgjsLine1413" x1="4" y1="4" x2="2" y2="4" stroke="#000000" stroke-width="0.1"></line><line id="SvgjsLine1411" x1="2" y1="4" x2="0" y2="2" stroke="#000000" stroke-width="0.1"></line><line id="SvgjsLine1409" x1="2" y1="3" x2="0" y2="2" stroke="#422aa8" stroke-width="0.1"></line><line id="SvgjsLine1407" x1="2" y1="2" x2="0" y2="2" stroke="#422aa8" stroke-width="0.1"></line><line id="SvgjsLine1405" x1="2" y1="1" x2="0" y2="2" stroke="#422aa8" stroke-width="0.1"></line><line id="SvgjsLine1403" x1="4" y1="0" x2="2" y2="0" stroke="#000000" stroke-width="0.1"></line><line id="SvgjsLine1401" x1="2" y1="0" x2="0" y2="2" stroke="#000000" stroke-width="0.1"></line><circle id="SvgjsCircle1399" r="0.25" cx="0" cy="2"></circle><circle id="SvgjsCircle1400" r="0.25" cx="2" cy="0"></circle><circle id="SvgjsCircle1402" r="0.25" cx="4" cy="0"></circle><circle id="SvgjsCircle1404" r="0.25" cx="2" cy="1" fill="#422aa8"></circle><circle id="SvgjsCircle1406" r="0.25" cx="2" cy="2" fill="#422aa8"></circle><circle id="SvgjsCircle1408" r="0.25" cx="2" cy="3" fill="#422aa8"></circle><circle id="SvgjsCircle1410" r="0.25" cx="2" cy="4"></circle><circle id="SvgjsCircle1412" r="0.25" cx="4" cy="4"></circle></g></svg>