<svg xmlns="http://www.w3.org/2000/svg" version="1.1" xmlns:xlink="http://www.w3.org/1999/xlink" xmlns:svgjs="http://svgjs.com/svgjs" viewBox="-0.25 -1.25 16.5 3.55"><svg id="SvgjsSvg1002" width="2" height="0" focusable="false" style="overflow:hidden;top:-100%;left:-100%;position:absolute;opacity:0"><polyline id="SvgjsPolyline1003" points="0,0"></polyline><path id="SvgjsPath1004" d=""></path></svg><g id="SvgjsG1151"><line id="SvgjsLine1150" x1="4" y1="0" x2="2" y2="0" stroke="#000000" stroke-width="0.1"></line><line id="SvgjsLine1148" x1="2" y1="0" x2="0" y2="0" stroke="#000000" stroke-width="0.1"></line><circle id="SvgjsCircle1146" r="0.25" cx="0" cy="0"></circle><circle id="SvgjsCircle1147" r="0.25" cx="2" cy="0"></circle><circle id="SvgjsCircle1149" r="0.25" cx="4" cy="0"></circle><path id="SvgjsPath1162" d="M 4.3,0.3 l -0.6,-0.6 m 0,0.6 l 0.6,-0.6" stroke="#bf0000" stroke-width="0.1"></path></g><g id="SvgjsG1159" transform="matrix(1,0,0,1,6,-1)"><line id="SvgjsLine1158" x1="2" y1="2" x2="0" y2="1" stroke="#422aa8" stroke-width="0.1"></line><line id="SvgjsLine1156" x1="2" y1="1" x2="0" y2="1" stroke="#422aa8" stroke-width="0.1"></line><line id="SvgjsLine1154" x1="2" y1="0" x2="0" y2="1" stroke="#422aa8" stroke-width="0.1"></line><circle id="SvgjsCircle1152" r="0.25" cx="0" cy="1"></circle><circle id="SvgjsCircle1153" r="0.25" cx="2" cy="0" fill="#422aa8"></circle><circle id="SvgjsCircle1155" r="0.25" cx="2" cy="1" fill="#422aa8"></circle><circle id="SvgjsCircle1157" r="0.25" cx="2" cy="2" fill="#422aa8"></circle><path id="SvgjsPath1163" d="M 2.3,0.3 l -0.6,-0.6 m 0,0.6 l 0.6,-0.6" stroke="#bf0000" stroke-width="0.1"></path><path id="SvgjsPath1164" d="M 2.3,1.3 l -0.6,-0.6 m 0,0.6 l 0.6,-0.6" stroke="#bf0000" stroke-width="0.1"></path><path id="SvgjsPath1165" d="M 2.3,2.3 l -0.6,-0.6 m 0,0.6 l 0.6,-0.6" stroke="#bf0000" stroke-width="0.1"></path></g><g id="SvgjsG1161" transform="matrix(1,0,0,1,12,0)"><circle id="SvgjsCircle1160" r="0.25" cx="0" cy="0"></circle><path id="SvgjsPath1166" d="M-0.15000000000000002 -0.10999999999999999L-0.050000000000000044 -0.010000000000000009M-0.050000000000000044 -0.10999999999999999L-0.15000000000000002 -0.010000000000000009 " stroke="#ffffff" stroke-width="0.025"></path><path id="SvgjsPath1168" d="M0.05000000000000002 -0.10999999999999999L0.15 -0.010000000000000009M0.15 -0.10999999999999999L0.05000000000000002 -0.010000000000000009 " stroke="#ffffff" stroke-width="0.025"></path><path id="SvgjsPath1169" d="M-0.135 0.13627352856114372A0.162 0.162 0 0 1 0.135 0.13627352856114372 " stroke="#ffffff" stroke-width="0.025" fill="none"></path></g></svg>