<svg xmlns="http://www.w3.org/2000/svg" version="1.1" xmlns:xlink="http://www.w3.org/1999/xlink" xmlns:svgjs="http://svgjs.com/svgjs" viewBox="-0.25 -0.75 12.5 2.5"><svg id="SvgjsSvg1002" style="overflow: hidden; top: -100%; left: -100%; position: absolute; opacity: 0;" width="2" height="0" focusable="false"><polyline id="SvgjsPolyline1003" points=""></polyline><path id="SvgjsPath1004" d=""></path></svg><g id="SvgjsG1005"><line id="SvgjsLine1012" x1="4" y1="1" x2="2" y2="0.5" stroke="#000000" stroke-width="0.1"></line><line id="SvgjsLine1010" x1="4" y1="0" x2="2" y2="0.5" stroke="#000000" stroke-width="0.1"></line><line id="SvgjsLine1008" x1="2" y1="0.5" x2="0" y2="0.5" stroke="#000000" stroke-width="0.1"></line><circle id="SvgjsCircle1006" r="0.25" cx="0" cy="0.5"></circle><circle id="SvgjsCircle1007" r="0.25" cx="2" cy="0.5"></circle><circle id="SvgjsCircle1009" r="0.25" cx="4" cy="0"></circle><circle id="SvgjsCircle1011" r="0.25" cx="4" cy="1"></circle><path id="SvgjsPath1027" d="M 4.3,1.3 l -0.6,-0.6 m 0,0.6 l 0.6,-0.6" stroke="#bf0000" stroke-width="0.1"></path></g><g id="SvgjsG1013" transform="matrix(1,0,0,1,8,-0.5)"><line id="SvgjsLine1026" x1="4" y1="2" x2="2" y2="2" stroke="#422aa8" stroke-width="0.1"></line><line id="SvgjsLine1024" x1="2" y1="2" x2="0" y2="1" stroke="#422aa8" stroke-width="0.1"></line><line id="SvgjsLine1022" x1="4" y1="1" x2="2" y2="1" stroke="#422aa8" stroke-width="0.1"></line><line id="SvgjsLine1020" x1="2" y1="1" x2="0" y2="1" stroke="#422aa8" stroke-width="0.1"></line><line id="SvgjsLine1018" x1="4" y1="0" x2="2" y2="0" stroke="#422aa8" stroke-width="0.1"></line><line id="SvgjsLine1016" x1="2" y1="0" x2="0" y2="1" stroke="#422aa8" stroke-width="0.1"></line><circle id="SvgjsCircle1014" r="0.25" cx="0" cy="1"></circle><circle id="SvgjsCircle1015" r="0.25" cx="2" cy="0" fill="#422aa8"></circle><circle id="SvgjsCircle1017" r="0.25" cx="4" cy="0" fill="#422aa8"></circle><circle id="SvgjsCircle1019" r="0.25" cx="2" cy="1" fill="#422aa8"></circle><circle id="SvgjsCircle1021" r="0.25" cx="4" cy="1" fill="#422aa8"></circle><circle id="SvgjsCircle1023" r="0.25" cx="2" cy="2" fill="#422aa8"></circle><circle id="SvgjsCircle1025" r="0.25" cx="4" cy="2" fill="#422aa8"></circle></g></svg>