<svg xmlns="http://www.w3.org/2000/svg" version="1.1" xmlns:xlink="http://www.w3.org/1999/xlink" xmlns:svgjs="http://svgjs.com/svgjs" viewBox="-0.25 -0.25 12.5 4.5"><svg id="SvgjsSvg1002" width="2" height="0" focusable="false" style="overflow:hidden;top:-100%;left:-100%;position:absolute;opacity:0"><polyline id="SvgjsPolyline1003" points="0,0"></polyline><path id="SvgjsPath1004" d=""></path></svg><g id="SvgjsG1100"><line id="SvgjsLine1099" x1="4" y1="4" x2="2" y2="4" stroke="#000000" stroke-width="0.1"></line><line id="SvgjsLine1097" x1="2" y1="4" x2="0" y2="2" stroke="#000000" stroke-width="0.1"></line><line id="SvgjsLine1095" x1="2" y1="3" x2="0" y2="2" stroke="#000000" stroke-width="0.1"></line><line id="SvgjsLine1093" x1="2" y1="2" x2="0" y2="2" stroke="#000000" stroke-width="0.1"></line><line id="SvgjsLine1091" x1="2" y1="1" x2="0" y2="2" stroke="#000000" stroke-width="0.1"></line><line id="SvgjsLine1089" x1="4" y1="0" x2="2" y2="0" stroke="#000000" stroke-width="0.1"></line><line id="SvgjsLine1087" x1="2" y1="0" x2="0" y2="2" stroke="#000000" stroke-width="0.1"></line><circle id="SvgjsCircle1085" r="0.25" cx="0" cy="2"></circle><circle id="SvgjsCircle1086" r="0.25" cx="2" cy="0"></circle><circle id="SvgjsCircle1088" r="0.25" cx="4" cy="0"></circle><circle id="SvgjsCircle1090" r="0.25" cx="2" cy="1"></circle><circle id="SvgjsCircle1092" r="0.25" cx="2" cy="2"></circle><circle id="SvgjsCircle1094" r="0.25" cx="2" cy="3"></circle><circle id="SvgjsCircle1096" r="0.25" cx="2" cy="4"></circle><circle id="SvgjsCircle1098" r="0.25" cx="4" cy="4"></circle><path id="SvgjsPath1111" d="M 2.3,1.3 l -0.6,-0.6 m 0,0.6 l 0.6,-0.6" stroke="#bf0000" stroke-width="0.1"></path><path id="SvgjsPath1112" d="M 2.3,2.3 l -0.6,-0.6 m 0,0.6 l 0.6,-0.6" stroke="#bf0000" stroke-width="0.1"></path><path id="SvgjsPath1113" d="M 2.3,3.3 l -0.6,-0.6 m 0,0.6 l 0.6,-0.6" stroke="#bf0000" stroke-width="0.1"></path></g><g id="SvgjsG1110" transform="matrix(1,0,0,1,8,1.5)"><line id="SvgjsLine1109" x1="4" y1="1" x2="2" y2="1" stroke="#000000" stroke-width="0.1"></line><line id="SvgjsLine1107" x1="2" y1="1" x2="0" y2="0.5" stroke="#000000" stroke-width="0.1"></line><line id="SvgjsLine1105" x1="4" y1="0" x2="2" y2="0" stroke="#000000" stroke-width="0.1"></line><line id="SvgjsLine1103" x1="2" y1="0" x2="0" y2="0.5" stroke="#000000" stroke-width="0.1"></line><circle id="SvgjsCircle1101" r="0.25" cx="0" cy="0.5"></circle><circle id="SvgjsCircle1102" r="0.25" cx="2" cy="0"></circle><circle id="SvgjsCircle1104" r="0.25" cx="4" cy="0"></circle><circle id="SvgjsCircle1106" r="0.25" cx="2" cy="1"></circle><circle id="SvgjsCircle1108" r="0.25" cx="4" cy="1"></circle></g></svg>