
<svg xmlns="http://www.w3.org/2000/svg" version="1.1" xmlns:xlink="http://www.w3.org/1999/xlink" xmlns:svgjs="http://svgjs.dev/svgjs" viewBox="-0.25 -1.25 16.5 3.55">
 <g>
  <line x1="4" y1="1" x2="2" y2="1" stroke-width="0.1" stroke="#000000"></line>
  <line x1="2" y1="1" x2="0" y2="0.5" stroke-width="0.1" stroke="#000000"></line>
  <line x1="4" y1="0" x2="2" y2="0" stroke-width="0.1" stroke="#000000"></line>
  <line x1="2" y1="0" x2="0" y2="0.5" stroke-width="0.1" stroke="#000000"></line>
  <circle r="0.25" cx="0" cy="0.5"></circle>
  <circle r="0.25" cx="2" cy="0"></circle>
  <circle r="0.25" cx="4" cy="0"></circle>
  <circle r="0.25" cx="2" cy="1"></circle>
  <circle r="0.25" cx="4" cy="1"></circle>
  <path d="M 4.3,1.3 l -0.6,-0.6 m 0,0.6 l 0.6,-0.6" stroke-width="0.1" stroke="#bf0000"></path>
 </g>
 <g transform="matrix(1,0,0,1,6,-1)">
  <line x1="2" y1="3" x2="0" y2="1.5" stroke-width="0.1" stroke="#422aa8"></line>
  <line x1="2" y1="2" x2="0" y2="1.5" stroke-width="0.1" stroke="#422aa8"></line>
  <line x1="2" y1="1" x2="0" y2="1.5" stroke-width="0.1" stroke="#422aa8"></line>
  <line x1="4" y1="0" x2="2" y2="0" stroke-width="0.1" stroke="#000000"></line>
  <line x1="2" y1="0" x2="0" y2="1.5" stroke-width="0.1" stroke="#000000"></line>
  <circle r="0.25" cx="0" cy="1.5"></circle>
  <circle r="0.25" cx="2" cy="0"></circle>
  <circle r="0.25" cx="4" cy="0"></circle>
  <circle r="0.25" cx="2" cy="1" fill="#422aa8"></circle>
  <circle r="0.25" cx="2" cy="2" fill="#422aa8"></circle>
  <circle r="0.25" cx="2" cy="3" fill="#422aa8"></circle>
  <path d="M 2.3,1.3 l -0.6,-0.6 m 0,0.6 l 0.6,-0.6" stroke-width="0.1" stroke="#bf0000"></path>
  <path d="M 2.3,2.3 l -0.6,-0.6 m 0,0.6 l 0.6,-0.6" stroke-width="0.1" stroke="#bf0000"></path>
  <path d="M 2.3,3.3 l -0.6,-0.6 m 0,0.6 l 0.6,-0.6" stroke-width="0.1" stroke="#bf0000"></path>
 </g>
 <g transform="matrix(1,0,0,1,12,0.5)">
  <line x1="4" y1="0" x2="2" y2="0" stroke-width="0.1" stroke="#000000"></line>
  <line x1="2" y1="0" x2="0" y2="0" stroke-width="0.1" stroke="#000000"></line>
  <circle r="0.25" cx="0" cy="0"></circle>
  <circle r="0.25" cx="2" cy="0"></circle>
  <circle r="0.25" cx="4" cy="0"></circle>
 </g>
</svg>