
<svg xmlns="http://www.w3.org/2000/svg" version="1.1" xmlns:xlink="http://www.w3.org/1999/xlink" xmlns:svgjs="http://svgjs.com/svgjs" viewBox="-0.25 -1.25 12.5 4.5">
 <g id="g-1">
  <line id="line-1" x1="4" y1="2" x2="2" y2="2" stroke="#000000" stroke-width="0.1"></line>
  <line id="line-2" x1="2" y1="2" x2="0" y2="1" stroke="#000000" stroke-width="0.1"></line>
  <line id="line-3" x1="4" y1="1" x2="2" y2="1" stroke="#000000" stroke-width="0.1"></line>
  <line id="line-4" x1="2" y1="1" x2="0" y2="1" stroke="#000000" stroke-width="0.1"></line>
  <line id="line-5" x1="4" y1="0" x2="2" y2="0" stroke="#000000" stroke-width="0.1"></line>
  <line id="line-6" x1="2" y1="0" x2="0" y2="1" stroke="#000000" stroke-width="0.1"></line>
  <circle id="circle-1" r="0.25" cx="0" cy="1"></circle>
  <circle id="circle-2" r="0.25" cx="2" cy="0"></circle>
  <circle id="circle-3" r="0.25" cx="4" cy="0"></circle>
  <circle id="circle-4" r="0.25" cx="2" cy="1"></circle>
  <circle id="circle-5" r="0.25" cx="4" cy="1"></circle>
  <circle id="circle-6" r="0.25" cx="2" cy="2"></circle>
  <circle id="circle-7" r="0.25" cx="4" cy="2"></circle>
  <path id="path-1" d="M 4.3,1.3 l -0.6,-0.6 m 0,0.6 l 0.6,-0.6" stroke="#bf0000" stroke-width="0.1"></path>
 </g>
 <g id="g-2" transform="matrix(1,0,0,1,8,-1)">
  <line id="line-7" x1="4" y1="4" x2="2" y2="4" stroke="#000000" stroke-width="0.1"></line>
  <line id="line-8" x1="2" y1="4" x2="0" y2="2" stroke="#000000" stroke-width="0.1"></line>
  <line id="line-9" x1="2" y1="3" x2="0" y2="2" stroke="#422aa8" stroke-width="0.1"></line>
  <line id="line-10" x1="2" y1="2" x2="0" y2="2" stroke="#422aa8" stroke-width="0.1"></line>
  <line id="line-11" x1="2" y1="1" x2="0" y2="2" stroke="#422aa8" stroke-width="0.1"></line>
  <line id="line-12" x1="4" y1="0" x2="2" y2="0" stroke="#000000" stroke-width="0.1"></line>
  <line id="line-13" x1="2" y1="0" x2="0" y2="2" stroke="#000000" stroke-width="0.1"></line>
  <circle id="circle-8" r="0.25" cx="0" cy="2"></circle>
  <circle id="circle-9" r="0.25" cx="2" cy="0"></circle>
  <circle id="circle-10" r="0.25" cx="4" cy="0"></circle>
  <circle id="circle-11" r="0.25" cx="2" cy="1" fill="#422aa8"></circle>
  <circle id="circle-12" r="0.25" cx="2" cy="2" fill="#422aa8"></circle>
  <circle id="circle-13" r="0.25" cx="2" cy="3" fill="#422aa8"></circle>
  <circle id="circle-14" r="0.25" cx="2" cy="4"></circle>
  <circle id="circle-15" r="0.25" cx="4" cy="4"></circle>
 </g>
</svg>