<svg xmlns="http://www.w3.org/2000/svg" version="1.1" xmlns:xlink="http://www.w3.org/1999/xlink" xmlns:svgjs="http://svgjs.com/svgjs" viewBox="-0.25 -1.25 16.5 3.55"><svg id="SvgjsSvg1002" style="overflow: hidden; top: -100%; left: -100%; position: absolute; opacity: 0;" width="2" height="0" focusable="false"><polyline id="SvgjsPolyline1003" points=""></polyline><path id="SvgjsPath1004" d=""></path></svg><g id="SvgjsG1476"><line id="SvgjsLine1481" x1="4" y1="0" x2="2" y2="0" stroke="#000000" stroke-width="0.1"></line><line id="SvgjsLine1479" x1="2" y1="0" x2="0" y2="0" stroke="#000000" stroke-width="0.1"></line><circle id="SvgjsCircle1477" r="0.25" cx="0" cy="0"></circle><circle id="SvgjsCircle1478" r="0.25" cx="2" cy="0"></circle><circle id="SvgjsCircle1480" r="0.25" cx="4" cy="0"></circle><path id="SvgjsPath1492" d="M 4.3,0.3 l -0.6,-0.6 m 0,0.6 l 0.6,-0.6" stroke="#bf0000" stroke-width="0.1"></path></g><g id="SvgjsG1482" transform="matrix(1,0,0,1,6,-1)"><line id="SvgjsLine1489" x1="2" y1="2" x2="0" y2="1" stroke="#422aa8" stroke-width="0.1"></line><line id="SvgjsLine1487" x1="2" y1="1" x2="0" y2="1" stroke="#422aa8" stroke-width="0.1"></line><line id="SvgjsLine1485" x1="2" y1="0" x2="0" y2="1" stroke="#422aa8" stroke-width="0.1"></line><circle id="SvgjsCircle1483" r="0.25" cx="0" cy="1"></circle><circle id="SvgjsCircle1484" r="0.25" cx="2" cy="0" fill="#422aa8"></circle><circle id="SvgjsCircle1486" r="0.25" cx="2" cy="1" fill="#422aa8"></circle><circle id="SvgjsCircle1488" r="0.25" cx="2" cy="2" fill="#422aa8"></circle><path id="SvgjsPath1493" d="M 2.3,0.3 l -0.6,-0.6 m 0,0.6 l 0.6,-0.6" stroke="#bf0000" stroke-width="0.1"></path><path id="SvgjsPath1494" d="M 2.3,1.3 l -0.6,-0.6 m 0,0.6 l 0.6,-0.6" stroke="#bf0000" stroke-width="0.1"></path><path id="SvgjsPath1495" d="M 2.3,2.3 l -0.6,-0.6 m 0,0.6 l 0.6,-0.6" stroke="#bf0000" stroke-width="0.1"></path></g><g id="SvgjsG1490" transform="matrix(1,0,0,1,12,0)"><circle id="SvgjsCircle1491" r="0.25" cx="0" cy="0"></circle><path id="SvgjsPath1496" d="M-0.15000000000000002 -0.10999999999999999L-0.050000000000000044 -0.010000000000000009M-0.050000000000000044 -0.10999999999999999L-0.15000000000000002 -0.010000000000000009 " stroke="#ffffff" stroke-width="0.025"></path><path id="SvgjsPath1498" d="M0.05000000000000002 -0.10999999999999999L0.15 -0.010000000000000009M0.15 -0.10999999999999999L0.05000000000000002 -0.010000000000000009 " stroke="#ffffff" stroke-width="0.025"></path><path id="SvgjsPath1499" d="M-0.135 0.13622556533020214A0.162 0.162 0 0 1 0.135 0.13622556533020214 " stroke="#ffffff" stroke-width="0.025" fill="none"></path></g></svg>