<svg xmlns="http://www.w3.org/2000/svg" version="1.1" xmlns:xlink="http://www.w3.org/1999/xlink" xmlns:svgjs="http://svgjs.com/svgjs" viewBox="-0.25 -1.25 16.5 3.55"><svg id="SvgjsSvg1002" style="overflow: hidden; top: -100%; left: -100%; position: absolute; opacity: 0;" width="2" height="0" focusable="false"><polyline id="SvgjsPolyline1003" points=""></polyline><path id="SvgjsPath1004" d=""></path></svg><g id="SvgjsG1444"><line id="SvgjsLine1453" x1="4" y1="1" x2="2" y2="1" stroke="#000000" stroke-width="0.1"></line><line id="SvgjsLine1451" x1="2" y1="1" x2="0" y2="0.5" stroke="#000000" stroke-width="0.1"></line><line id="SvgjsLine1449" x1="4" y1="0" x2="2" y2="0" stroke="#000000" stroke-width="0.1"></line><line id="SvgjsLine1447" x1="2" y1="0" x2="0" y2="0.5" stroke="#000000" stroke-width="0.1"></line><circle id="SvgjsCircle1445" r="0.25" cx="0" cy="0.5"></circle><circle id="SvgjsCircle1446" r="0.25" cx="2" cy="0"></circle><circle id="SvgjsCircle1448" r="0.25" cx="4" cy="0"></circle><circle id="SvgjsCircle1450" r="0.25" cx="2" cy="1"></circle><circle id="SvgjsCircle1452" r="0.25" cx="4" cy="1"></circle><path id="SvgjsPath1472" d="M 4.3,1.3 l -0.6,-0.6 m 0,0.6 l 0.6,-0.6" stroke="#bf0000" stroke-width="0.1"></path></g><g id="SvgjsG1454" transform="matrix(1,0,0,1,6,-1)"><line id="SvgjsLine1465" x1="2" y1="3" x2="0" y2="1.5" stroke="#422aa8" stroke-width="0.1"></line><line id="SvgjsLine1463" x1="2" y1="2" x2="0" y2="1.5" stroke="#422aa8" stroke-width="0.1"></line><line id="SvgjsLine1461" x1="2" y1="1" x2="0" y2="1.5" stroke="#422aa8" stroke-width="0.1"></line><line id="SvgjsLine1459" x1="4" y1="0" x2="2" y2="0" stroke="#000000" stroke-width="0.1"></line><line id="SvgjsLine1457" x1="2" y1="0" x2="0" y2="1.5" stroke="#000000" stroke-width="0.1"></line><circle id="SvgjsCircle1455" r="0.25" cx="0" cy="1.5"></circle><circle id="SvgjsCircle1456" r="0.25" cx="2" cy="0"></circle><circle id="SvgjsCircle1458" r="0.25" cx="4" cy="0"></circle><circle id="SvgjsCircle1460" r="0.25" cx="2" cy="1" fill="#422aa8"></circle><circle id="SvgjsCircle1462" r="0.25" cx="2" cy="2" fill="#422aa8"></circle><circle id="SvgjsCircle1464" r="0.25" cx="2" cy="3" fill="#422aa8"></circle><path id="SvgjsPath1473" d="M 2.3,1.3 l -0.6,-0.6 m 0,0.6 l 0.6,-0.6" stroke="#bf0000" stroke-width="0.1"></path><path id="SvgjsPath1474" d="M 2.3,2.3 l -0.6,-0.6 m 0,0.6 l 0.6,-0.6" stroke="#bf0000" stroke-width="0.1"></path><path id="SvgjsPath1475" d="M 2.3,3.3 l -0.6,-0.6 m 0,0.6 l 0.6,-0.6" stroke="#bf0000" stroke-width="0.1"></path></g><g id="SvgjsG1466" transform="matrix(1,0,0,1,12,0.5)"><line id="SvgjsLine1471" x1="4" y1="0" x2="2" y2="0" stroke="#000000" stroke-width="0.1"></line><line id="SvgjsLine1469" x1="2" y1="0" x2="0" y2="0" stroke="#000000" stroke-width="0.1"></line><circle id="SvgjsCircle1467" r="0.25" cx="0" cy="0"></circle><circle id="SvgjsCircle1468" r="0.25" cx="2" cy="0"></circle><circle id="SvgjsCircle1470" r="0.25" cx="4" cy="0"></circle></g></svg>