
<svg xmlns="http://www.w3.org/2000/svg" version="1.1" xmlns:xlink="http://www.w3.org/1999/xlink" xmlns:svgjs="http://svgjs.com/svgjs" viewBox="-0.5 -2 29 14">
 <g id="g-1" transform="matrix(1,0,0,1,0,-0.25)">
  <line id="line-1" x1="4" y1="1" x2="2" y2="0.5" stroke="#000000" stroke-width="0.1"></line>
  <line id="line-2" x1="4" y1="0" x2="2" y2="0.5" stroke="#000000" stroke-width="0.1"></line>
  <line id="line-3" x1="2" y1="0.5" x2="0" y2="0.5" stroke="#000000" stroke-width="0.1"></line>
  <circle id="circle-1" r="0.25" cx="0" cy="0.5"></circle>
  <circle id="circle-2" r="0.25" cx="2" cy="0.5"></circle>
  <circle id="circle-3" r="0.25" cx="4" cy="0"></circle>
  <circle id="circle-4" r="0.25" cx="4" cy="1"></circle>
 </g>
 <svg style="" xmlns="http://www.w3.org/2000/svg" width="1.1975" height="1.0125" role="img" focusable="false" viewBox="0 -883.9 1058.6 894.9" xmlns:xlink="http://www.w3.org/1999/xlink" y="3" x="1.40125">
  <defs>
   <path id="mathjax-1" d="M495 384Q495 406 514 424T555 443Q574 443 589 425T604 364Q604 334 592 278T555 155T483 38T377 -11Q297 -11 267 66Q266 68 260 61Q201 -11 125 -11Q15 -11 15 139Q15 230 56 325T123 434Q135 441 147 436Q160 429 160 418Q160 406 140 379T94 306T62 208Q61 202 61 187Q61 124 85 100T143 76Q201 76 245 129L253 137V156Q258 297 317 297Q348 297 348 261Q348 243 338 213T318 158L308 135Q309 133 310 129T318 115T334 97T358 83T393 76Q456 76 501 148T546 274Q546 305 533 325T508 357T495 384Z"></path>
   <path id="mathjax-2" d="M109 429Q82 429 66 447T50 491Q50 562 103 614T235 666Q326 666 387 610T449 465Q449 422 429 383T381 315T301 241Q265 210 201 149L142 93L218 92Q375 92 385 97Q392 99 409 186V189H449V186Q448 183 436 95T421 3V0H50V19V31Q50 38 56 46T86 81Q115 113 136 137Q145 147 170 174T204 211T233 244T261 278T284 308T305 340T320 369T333 401T340 431T343 464Q343 527 309 573T212 619Q179 619 154 602T119 569T109 550Q109 549 114 549Q132 549 151 535T170 489Q170 464 154 447T109 429Z"></path>
  </defs>
  <g stroke="currentColor" fill="currentColor" stroke-width="0" transform="scale(1,-1)">
   <g data-mml-node="math">
    <g data-mml-node="msup">
     <g data-mml-node="mi">
      <use data-c="1D714" xlink:href="#mathjax-1"></use>
     </g>
     <g data-mml-node="mn" transform="translate(655,413) scale(0.707)">
      <use data-c="32" xlink:href="#mathjax-2"></use>
     </g>
    </g>
   </g>
  </g>
 </svg>
 <g id="g-2" transform="matrix(1,0,0,1,8,-0.75)">
  <line id="line-4" x1="4" y1="2" x2="2" y2="2" stroke="#000000" stroke-width="0.1"></line>
  <line id="line-5" x1="2" y1="2" x2="0" y2="1" stroke="#000000" stroke-width="0.1"></line>
  <line id="line-6" x1="4" y1="1" x2="2" y2="1" stroke="#000000" stroke-width="0.1"></line>
  <line id="line-7" x1="2" y1="1" x2="0" y2="1" stroke="#000000" stroke-width="0.1"></line>
  <line id="line-8" x1="4" y1="0" x2="2" y2="0" stroke="#000000" stroke-width="0.1"></line>
  <line id="line-9" x1="2" y1="0" x2="0" y2="1" stroke="#000000" stroke-width="0.1"></line>
  <circle id="circle-5" r="0.25" cx="0" cy="1"></circle>
  <circle id="circle-6" r="0.25" cx="2" cy="0"></circle>
  <circle id="circle-7" r="0.25" cx="4" cy="0"></circle>
  <circle id="circle-8" r="0.25" cx="2" cy="1"></circle>
  <circle id="circle-9" r="0.25" cx="4" cy="1"></circle>
  <circle id="circle-10" r="0.25" cx="2" cy="2"></circle>
  <circle id="circle-11" r="0.25" cx="4" cy="2"></circle>
 </g>
 <svg style="" xmlns="http://www.w3.org/2000/svg" width="1.269" height="0.777" role="img" focusable="false" viewBox="0 -665 1122 687" xmlns:xlink="http://www.w3.org/1999/xlink" y="3.248" x="9.3655">
  <defs>
   <path id="mathjax-3" d="M127 463Q100 463 85 480T69 524Q69 579 117 622T233 665Q268 665 277 664Q351 652 390 611T430 522Q430 470 396 421T302 350L299 348Q299 347 308 345T337 336T375 315Q457 262 457 175Q457 96 395 37T238 -22Q158 -22 100 21T42 130Q42 158 60 175T105 193Q133 193 151 175T169 130Q169 119 166 110T159 94T148 82T136 74T126 70T118 67L114 66Q165 21 238 21Q293 21 321 74Q338 107 338 175V195Q338 290 274 322Q259 328 213 329L171 330L168 332Q166 335 166 348Q166 366 174 366Q202 366 232 371Q266 376 294 413T322 525V533Q322 590 287 612Q265 626 240 626Q208 626 181 615T143 592T132 580H135Q138 579 143 578T153 573T165 566T175 555T183 540T186 520Q186 498 172 481T127 463Z"></path>
   <path id="mathjax-4" d="M495 384Q495 406 514 424T555 443Q574 443 589 425T604 364Q604 334 592 278T555 155T483 38T377 -11Q297 -11 267 66Q266 68 260 61Q201 -11 125 -11Q15 -11 15 139Q15 230 56 325T123 434Q135 441 147 436Q160 429 160 418Q160 406 140 379T94 306T62 208Q61 202 61 187Q61 124 85 100T143 76Q201 76 245 129L253 137V156Q258 297 317 297Q348 297 348 261Q348 243 338 213T318 158L308 135Q309 133 310 129T318 115T334 97T358 83T393 76Q456 76 501 148T546 274Q546 305 533 325T508 357T495 384Z"></path>
  </defs>
  <g stroke="currentColor" fill="currentColor" stroke-width="0" transform="scale(1,-1)">
   <g data-mml-node="math">
    <g data-mml-node="mn">
     <use data-c="33" xlink:href="#mathjax-3"></use>
    </g>
    <g data-mml-node="mi" transform="translate(500,0)">
     <use data-c="1D714" xlink:href="#mathjax-4"></use>
    </g>
   </g>
  </g>
 </svg>
 <g id="g-3" transform="matrix(1,0,0,1,16,-1.75)">
  <line id="line-10" x1="4" y1="4" x2="2" y2="4" stroke="#000000" stroke-width="0.1"></line>
  <line id="line-11" x1="2" y1="4" x2="0" y2="2" stroke="#000000" stroke-width="0.1"></line>
  <line id="line-12" x1="2" y1="3" x2="0" y2="2" stroke="#000000" stroke-width="0.1"></line>
  <line id="line-13" x1="2" y1="2" x2="0" y2="2" stroke="#000000" stroke-width="0.1"></line>
  <line id="line-14" x1="2" y1="1" x2="0" y2="2" stroke="#000000" stroke-width="0.1"></line>
  <line id="line-15" x1="4" y1="0" x2="2" y2="0" stroke="#000000" stroke-width="0.1"></line>
  <line id="line-16" x1="2" y1="0" x2="0" y2="2" stroke="#000000" stroke-width="0.1"></line>
  <circle id="circle-12" r="0.25" cx="0" cy="2"></circle>
  <circle id="circle-13" r="0.25" cx="2" cy="0"></circle>
  <circle id="circle-14" r="0.25" cx="4" cy="0"></circle>
  <circle id="circle-15" r="0.25" cx="2" cy="1"></circle>
  <circle id="circle-16" r="0.25" cx="2" cy="2"></circle>
  <circle id="circle-17" r="0.25" cx="2" cy="3"></circle>
  <circle id="circle-18" r="0.25" cx="2" cy="4"></circle>
  <circle id="circle-19" r="0.25" cx="4" cy="4"></circle>
 </g>
 <svg style="" xmlns="http://www.w3.org/2000/svg" width="3.2175" height="0.846" role="img" focusable="false" viewBox="0 -666 2844.4 748" xmlns:xlink="http://www.w3.org/1999/xlink" y="3.247" x="16.39125">
  <defs>
   <path id="mathjax-5" d="M109 429Q82 429 66 447T50 491Q50 562 103 614T235 666Q326 666 387 610T449 465Q449 422 429 383T381 315T301 241Q265 210 201 149L142 93L218 92Q375 92 385 97Q392 99 409 186V189H449V186Q448 183 436 95T421 3V0H50V19V31Q50 38 56 46T86 81Q115 113 136 137Q145 147 170 174T204 211T233 244T261 278T284 308T305 340T320 369T333 401T340 431T343 464Q343 527 309 573T212 619Q179 619 154 602T119 569T109 550Q109 549 114 549Q132 549 151 535T170 489Q170 464 154 447T109 429Z"></path>
   <path id="mathjax-6" d="M495 384Q495 406 514 424T555 443Q574 443 589 425T604 364Q604 334 592 278T555 155T483 38T377 -11Q297 -11 267 66Q266 68 260 61Q201 -11 125 -11Q15 -11 15 139Q15 230 56 325T123 434Q135 441 147 436Q160 429 160 418Q160 406 140 379T94 306T62 208Q61 202 61 187Q61 124 85 100T143 76Q201 76 245 129L253 137V156Q258 297 317 297Q348 297 348 261Q348 243 338 213T318 158L308 135Q309 133 310 129T318 115T334 97T358 83T393 76Q456 76 501 148T546 274Q546 305 533 325T508 357T495 384Z"></path>
   <path id="mathjax-7" d="M56 237T56 250T70 270H369V420L370 570Q380 583 389 583Q402 583 409 568V270H707Q722 262 722 250T707 230H409V-68Q401 -82 391 -82H389H387Q375 -82 369 -68V230H70Q56 237 56 250Z"></path>
   <path id="mathjax-8" d="M127 463Q100 463 85 480T69 524Q69 579 117 622T233 665Q268 665 277 664Q351 652 390 611T430 522Q430 470 396 421T302 350L299 348Q299 347 308 345T337 336T375 315Q457 262 457 175Q457 96 395 37T238 -22Q158 -22 100 21T42 130Q42 158 60 175T105 193Q133 193 151 175T169 130Q169 119 166 110T159 94T148 82T136 74T126 70T118 67L114 66Q165 21 238 21Q293 21 321 74Q338 107 338 175V195Q338 290 274 322Q259 328 213 329L171 330L168 332Q166 335 166 348Q166 366 174 366Q202 366 232 371Q266 376 294 413T322 525V533Q322 590 287 612Q265 626 240 626Q208 626 181 615T143 592T132 580H135Q138 579 143 578T153 573T165 566T175 555T183 540T186 520Q186 498 172 481T127 463Z"></path>
  </defs>
  <g stroke="currentColor" fill="currentColor" stroke-width="0" transform="scale(1,-1)">
   <g data-mml-node="math">
    <g data-mml-node="mn">
     <use data-c="32" xlink:href="#mathjax-5"></use>
    </g>
    <g data-mml-node="mi" transform="translate(500,0)">
     <use data-c="1D714" xlink:href="#mathjax-6"></use>
    </g>
    <g data-mml-node="mo" transform="translate(1344.2,0)">
     <use data-c="2B" xlink:href="#mathjax-7"></use>
    </g>
    <g data-mml-node="mn" transform="translate(2344.4,0)">
     <use data-c="33" xlink:href="#mathjax-8"></use>
    </g>
   </g>
  </g>
 </svg>
 <g id="g-4" transform="matrix(1,0,0,1,24,-0.25)">
  <line id="line-17" x1="4" y1="1" x2="2" y2="1" stroke="#000000" stroke-width="0.1"></line>
  <line id="line-18" x1="2" y1="1" x2="0" y2="0.5" stroke="#000000" stroke-width="0.1"></line>
  <line id="line-19" x1="4" y1="0" x2="2" y2="0" stroke="#000000" stroke-width="0.1"></line>
  <line id="line-20" x1="2" y1="0" x2="0" y2="0.5" stroke="#000000" stroke-width="0.1"></line>
  <circle id="circle-20" r="0.25" cx="0" cy="0.5"></circle>
  <circle id="circle-21" r="0.25" cx="2" cy="0"></circle>
  <circle id="circle-22" r="0.25" cx="4" cy="0"></circle>
  <circle id="circle-23" r="0.25" cx="2" cy="1"></circle>
  <circle id="circle-24" r="0.25" cx="4" cy="1"></circle>
 </g>
 <svg style="" xmlns="http://www.w3.org/2000/svg" width="1.269" height="0.766" role="img" focusable="false" viewBox="0 -666 1122 677" xmlns:xlink="http://www.w3.org/1999/xlink" y="3.2465" x="25.3655">
  <defs>
   <path id="mathjax-9" d="M109 429Q82 429 66 447T50 491Q50 562 103 614T235 666Q326 666 387 610T449 465Q449 422 429 383T381 315T301 241Q265 210 201 149L142 93L218 92Q375 92 385 97Q392 99 409 186V189H449V186Q448 183 436 95T421 3V0H50V19V31Q50 38 56 46T86 81Q115 113 136 137Q145 147 170 174T204 211T233 244T261 278T284 308T305 340T320 369T333 401T340 431T343 464Q343 527 309 573T212 619Q179 619 154 602T119 569T109 550Q109 549 114 549Q132 549 151 535T170 489Q170 464 154 447T109 429Z"></path>
   <path id="mathjax-10" d="M495 384Q495 406 514 424T555 443Q574 443 589 425T604 364Q604 334 592 278T555 155T483 38T377 -11Q297 -11 267 66Q266 68 260 61Q201 -11 125 -11Q15 -11 15 139Q15 230 56 325T123 434Q135 441 147 436Q160 429 160 418Q160 406 140 379T94 306T62 208Q61 202 61 187Q61 124 85 100T143 76Q201 76 245 129L253 137V156Q258 297 317 297Q348 297 348 261Q348 243 338 213T318 158L308 135Q309 133 310 129T318 115T334 97T358 83T393 76Q456 76 501 148T546 274Q546 305 533 325T508 357T495 384Z"></path>
  </defs>
  <g stroke="currentColor" fill="currentColor" stroke-width="0" transform="scale(1,-1)">
   <g data-mml-node="math">
    <g data-mml-node="mn">
     <use data-c="32" xlink:href="#mathjax-9"></use>
    </g>
    <g data-mml-node="mi" transform="translate(500,0)">
     <use data-c="1D714" xlink:href="#mathjax-10"></use>
    </g>
   </g>
  </g>
 </svg>
 <g id="g-5" transform="matrix(1,0,0,1,0,6.75)">
  <line id="line-21" x1="2" y1="3" x2="0" y2="1.5" stroke="#000000" stroke-width="0.1"></line>
  <line id="line-22" x1="2" y1="2" x2="0" y2="1.5" stroke="#000000" stroke-width="0.1"></line>
  <line id="line-23" x1="2" y1="1" x2="0" y2="1.5" stroke="#000000" stroke-width="0.1"></line>
  <line id="line-24" x1="4" y1="0" x2="2" y2="0" stroke="#000000" stroke-width="0.1"></line>
  <line id="line-25" x1="2" y1="0" x2="0" y2="1.5" stroke="#000000" stroke-width="0.1"></line>
  <circle id="circle-25" r="0.25" cx="0" cy="1.5"></circle>
  <circle id="circle-26" r="0.25" cx="2" cy="0"></circle>
  <circle id="circle-27" r="0.25" cx="4" cy="0"></circle>
  <circle id="circle-28" r="0.25" cx="2" cy="1"></circle>
  <circle id="circle-29" r="0.25" cx="2" cy="2"></circle>
  <circle id="circle-30" r="0.25" cx="2" cy="3"></circle>
 </g>
 <svg style="" xmlns="http://www.w3.org/2000/svg" width="2.652" height="0.845" role="img" focusable="false" viewBox="0 -665 2344.4 747" xmlns:xlink="http://www.w3.org/1999/xlink" y="11.248" x="0.6739999999999999">
  <defs>
   <path id="mathjax-11" d="M495 384Q495 406 514 424T555 443Q574 443 589 425T604 364Q604 334 592 278T555 155T483 38T377 -11Q297 -11 267 66Q266 68 260 61Q201 -11 125 -11Q15 -11 15 139Q15 230 56 325T123 434Q135 441 147 436Q160 429 160 418Q160 406 140 379T94 306T62 208Q61 202 61 187Q61 124 85 100T143 76Q201 76 245 129L253 137V156Q258 297 317 297Q348 297 348 261Q348 243 338 213T318 158L308 135Q309 133 310 129T318 115T334 97T358 83T393 76Q456 76 501 148T546 274Q546 305 533 325T508 357T495 384Z"></path>
   <path id="mathjax-12" d="M56 237T56 250T70 270H369V420L370 570Q380 583 389 583Q402 583 409 568V270H707Q722 262 722 250T707 230H409V-68Q401 -82 391 -82H389H387Q375 -82 369 -68V230H70Q56 237 56 250Z"></path>
   <path id="mathjax-13" d="M127 463Q100 463 85 480T69 524Q69 579 117 622T233 665Q268 665 277 664Q351 652 390 611T430 522Q430 470 396 421T302 350L299 348Q299 347 308 345T337 336T375 315Q457 262 457 175Q457 96 395 37T238 -22Q158 -22 100 21T42 130Q42 158 60 175T105 193Q133 193 151 175T169 130Q169 119 166 110T159 94T148 82T136 74T126 70T118 67L114 66Q165 21 238 21Q293 21 321 74Q338 107 338 175V195Q338 290 274 322Q259 328 213 329L171 330L168 332Q166 335 166 348Q166 366 174 366Q202 366 232 371Q266 376 294 413T322 525V533Q322 590 287 612Q265 626 240 626Q208 626 181 615T143 592T132 580H135Q138 579 143 578T153 573T165 566T175 555T183 540T186 520Q186 498 172 481T127 463Z"></path>
  </defs>
  <g stroke="currentColor" fill="currentColor" stroke-width="0" transform="scale(1,-1)">
   <g data-mml-node="math">
    <g data-mml-node="mi">
     <use data-c="1D714" xlink:href="#mathjax-11"></use>
    </g>
    <g data-mml-node="mo" transform="translate(844.2,0)">
     <use data-c="2B" xlink:href="#mathjax-12"></use>
    </g>
    <g data-mml-node="mn" transform="translate(1844.4,0)">
     <use data-c="33" xlink:href="#mathjax-13"></use>
    </g>
   </g>
  </g>
 </svg>
 <g id="g-6" transform="matrix(1,0,0,1,8,8.25)">
  <line id="line-26" x1="4" y1="0" x2="2" y2="0" stroke="#000000" stroke-width="0.1"></line>
  <line id="line-27" x1="2" y1="0" x2="0" y2="0" stroke="#000000" stroke-width="0.1"></line>
  <circle id="circle-31" r="0.25" cx="0" cy="0"></circle>
  <circle id="circle-32" r="0.25" cx="2" cy="0"></circle>
  <circle id="circle-33" r="0.25" cx="4" cy="0"></circle>
 </g>
 <svg style="" xmlns="http://www.w3.org/2000/svg" width="0.7035" height="0.5135" role="img" focusable="false" viewBox="0 -443 622 454" xmlns:xlink="http://www.w3.org/1999/xlink" y="11.499" x="9.64825">
  <defs>
   <path id="mathjax-14" d="M495 384Q495 406 514 424T555 443Q574 443 589 425T604 364Q604 334 592 278T555 155T483 38T377 -11Q297 -11 267 66Q266 68 260 61Q201 -11 125 -11Q15 -11 15 139Q15 230 56 325T123 434Q135 441 147 436Q160 429 160 418Q160 406 140 379T94 306T62 208Q61 202 61 187Q61 124 85 100T143 76Q201 76 245 129L253 137V156Q258 297 317 297Q348 297 348 261Q348 243 338 213T318 158L308 135Q309 133 310 129T318 115T334 97T358 83T393 76Q456 76 501 148T546 274Q546 305 533 325T508 357T495 384Z"></path>
  </defs>
  <g stroke="currentColor" fill="currentColor" stroke-width="0" transform="scale(1,-1)">
   <g data-mml-node="math">
    <g data-mml-node="mi">
     <use data-c="1D714" xlink:href="#mathjax-14"></use>
    </g>
   </g>
  </g>
 </svg>
 <g id="g-7" transform="matrix(1,0,0,1,16,7.25)">
  <line id="line-28" x1="2" y1="2" x2="0" y2="1" stroke="#000000" stroke-width="0.1"></line>
  <line id="line-29" x1="2" y1="1" x2="0" y2="1" stroke="#000000" stroke-width="0.1"></line>
  <line id="line-30" x1="2" y1="0" x2="0" y2="1" stroke="#000000" stroke-width="0.1"></line>
  <circle id="circle-34" r="0.25" cx="0" cy="1"></circle>
  <circle id="circle-35" r="0.25" cx="2" cy="0"></circle>
  <circle id="circle-36" r="0.25" cx="2" cy="1"></circle>
  <circle id="circle-37" r="0.25" cx="2" cy="2"></circle>
 </g>
 <svg style="" xmlns="http://www.w3.org/2000/svg" width="0.5655" height="0.777" role="img" focusable="false" viewBox="0 -665 500 687" xmlns:xlink="http://www.w3.org/1999/xlink" y="11.248" x="17.71725">
  <defs>
   <path id="mathjax-15" d="M127 463Q100 463 85 480T69 524Q69 579 117 622T233 665Q268 665 277 664Q351 652 390 611T430 522Q430 470 396 421T302 350L299 348Q299 347 308 345T337 336T375 315Q457 262 457 175Q457 96 395 37T238 -22Q158 -22 100 21T42 130Q42 158 60 175T105 193Q133 193 151 175T169 130Q169 119 166 110T159 94T148 82T136 74T126 70T118 67L114 66Q165 21 238 21Q293 21 321 74Q338 107 338 175V195Q338 290 274 322Q259 328 213 329L171 330L168 332Q166 335 166 348Q166 366 174 366Q202 366 232 371Q266 376 294 413T322 525V533Q322 590 287 612Q265 626 240 626Q208 626 181 615T143 592T132 580H135Q138 579 143 578T153 573T165 566T175 555T183 540T186 520Q186 498 172 481T127 463Z"></path>
  </defs>
  <g stroke="currentColor" fill="currentColor" stroke-width="0" transform="scale(1,-1)">
   <g data-mml-node="math">
    <g data-mml-node="mn">
     <use data-c="33" xlink:href="#mathjax-15"></use>
    </g>
   </g>
  </g>
 </svg>
 <g id="g-8" transform="matrix(1,0,0,1,24,8.25)">
  <circle id="circle-38" r="0.25" cx="0" cy="0"></circle>
 </g>
 <svg style="" xmlns="http://www.w3.org/2000/svg" width="0.5655" height="0.7785" role="img" focusable="false" viewBox="0 -666 500 688" xmlns:xlink="http://www.w3.org/1999/xlink" y="11.2465" x="25.71725">
  <defs>
   <path id="mathjax-16" d="M96 585Q152 666 249 666Q297 666 345 640T423 548Q460 465 460 320Q460 165 417 83Q397 41 362 16T301 -15T250 -22Q224 -22 198 -16T137 16T82 83Q39 165 39 320Q39 494 96 585ZM321 597Q291 629 250 629Q208 629 178 597Q153 571 145 525T137 333Q137 175 145 125T181 46Q209 16 250 16Q290 16 318 46Q347 76 354 130T362 333Q362 478 354 524T321 597Z"></path>
  </defs>
  <g stroke="currentColor" fill="currentColor" stroke-width="0" transform="scale(1,-1)">
   <g data-mml-node="math">
    <g data-mml-node="mn">
     <use data-c="30" xlink:href="#mathjax-16"></use>
    </g>
   </g>
  </g>
 </svg>
</svg>