<svg xmlns="http://www.w3.org/2000/svg" version="1.1" xmlns:xlink="http://www.w3.org/1999/xlink" xmlns:svgjs="http://svgjs.com/svgjs" viewBox="-3 -0.25 10.807604166666668 3.5"><line id="SvgjsLine1020" x1="4" y1="3" x2="2" y2="3" stroke="#000000" stroke-width="0.1"></line><line id="SvgjsLine1018" x1="2" y1="3" x2="0" y2="2" stroke="#000000" stroke-width="0.1"></line><line id="SvgjsLine1016" x1="2" y1="2" x2="0" y2="2" stroke="#000000" stroke-width="0.1"></line><line id="SvgjsLine1014" x1="4" y1="2" x2="2" y2="1" stroke="#000000" stroke-width="0.1"></line><line id="SvgjsLine1012" x1="4" y1="1" x2="2" y2="1" stroke="#000000" stroke-width="0.1"></line><line id="SvgjsLine1010" x1="4" y1="0" x2="2" y2="1" stroke="#000000" stroke-width="0.1"></line><line id="SvgjsLine1008" x1="2" y1="1" x2="0" y2="2" stroke="#000000" stroke-width="0.1"></line><defs id="SvgjsDefs1001"><marker id="SvgjsMarker1023" markerWidth="5" markerHeight="5" refX="2.5" refY="2.5" viewBox="0 0 5 5" orient="auto"><polygon id="SvgjsPolygon1024" points="0,0 5,2.5 0,5" fill="#7c7c7c"></polygon></marker></defs><svg id="SvgjsSvg1002" width="2" height="0" focusable="false" style="overflow:hidden;top:-100%;left:-100%;position:absolute;opacity:0"><polyline id="SvgjsPolyline1003" points="0,0"></polyline><path id="SvgjsPath1004" d=""></path></svg><circle id="SvgjsCircle1006" r="0.25" cx="0" cy="2"></circle><circle id="SvgjsCircle1007" r="0.25" cx="2" cy="1"></circle><circle id="SvgjsCircle1009" r="0.25" cx="4" cy="0"></circle><circle id="SvgjsCircle1011" r="0.25" cx="4" cy="1"></circle><circle id="SvgjsCircle1013" r="0.25" cx="4" cy="2"></circle><circle id="SvgjsCircle1015" r="0.25" cx="2" cy="2"></circle><circle id="SvgjsCircle1017" r="0.25" cx="2" cy="3"></circle><circle id="SvgjsCircle1019" r="0.25" cx="4" cy="3"></circle><path id="SvgjsPath1021" d="M-2.923541666666667 0.5336458333333312L-3 0.5336458333333312L-3 0L-2.923541666666667 0L-2.923541666666667 0.1941666666666677Q-2.9022916666666667 0.17395833333333144 -2.8786458333333336 0.16156250000000227Q-2.8550000000000004 0.14906249999999943 -2.8253125 0.14906249999999943L-2.8253125 0.14906249999999943Q-2.790520833333334 0.14906249999999943 -2.7653125000000003 0.16312500000000085Q-2.74 0.17729166666666885 -2.7235416666666667 0.19854166666666373L-2.7235416666666667 0.19854166666666373Q-2.7078125 0.21906249999999972 -2.7020833333333334 0.24635416666666998Q-2.696458333333333 0.27354166666666657 -2.696458333333333 0.34312500000000057L-2.696458333333333 0.34312500000000057Q-2.696458333333333 0.41343750000000057 -2.7020833333333334 0.44114583333333Q-2.7078125 0.46875 -2.7235416666666667 0.48895833333333627L-2.7235416666666667 0.48895833333333627Q-2.74 0.5105208333333309 -2.7653125000000003 0.5242708333333326Q-2.790520833333334 0.5380208333333343 -2.8253125 0.5380208333333343L-2.8253125 0.5380208333333343Q-2.883958333333333 0.5380208333333343 -2.923541666666667 0.4940624999999983L-2.923541666666667 0.4940624999999983L-2.923541666666667 0.5336458333333312ZM-2.8484375 0.22562500000000085L-2.8484375 0.22562500000000085Q-2.9022916666666667 0.22562500000000085 -2.912916666666667 0.2640625000000014Q-2.923541666666667 0.302500000000002 -2.923541666666667 0.34312500000000057L-2.923541666666667 0.34312500000000057Q-2.923541666666667 0.38489583333333144 -2.912916666666667 0.423333333333332Q-2.9022916666666667 0.4617708333333326 -2.8484375 0.4617708333333326L-2.8484375 0.4617708333333326Q-2.7945833333333336 0.4617708333333326 -2.7837500000000004 0.424791666666664Q-2.7730208333333337 0.38781250000000256 -2.7730208333333337 0.34312500000000057L-2.7730208333333337 0.34312500000000057Q-2.7730208333333337 0.29958333333333087 -2.7837500000000004 0.2626041666666694Q-2.7945833333333336 0.22562500000000085 -2.8484375 0.22562500000000085ZM-2.6297916666666667 0.34312500000000057L-2.6297916666666667 0.34312500000000057Q-2.6297916666666667 0.281979166666666 -2.6203125 0.25197916666666487Q-2.6107291666666663 0.22197916666666373 -2.58875 0.19781249999999773L-2.58875 0.19781249999999773Q-2.5730208333333335 0.18052083333333258 -2.545416666666666 0.164791666666666Q-2.517708333333333 0.14906249999999943 -2.473020833333333 0.14906249999999943L-2.473020833333333 0.14906249999999943Q-2.4290624999999997 0.14906249999999943 -2.40125 0.164791666666666Q-2.3734374999999996 0.18052083333333258 -2.357708333333333 0.19781249999999773L-2.357708333333333 0.19781249999999773Q-2.335729166666667 0.22197916666666373 -2.32625 0.25197916666666487Q-2.3166666666666664 0.281979166666666 -2.3166666666666664 0.34312500000000057L-2.3166666666666664 0.34312500000000057Q-2.3166666666666664 0.4054166666666674 -2.32625 0.43541666666666856Q-2.335729166666667 0.46552083333333627 -2.357708333333333 0.4896875000000023L-2.357708333333333 0.4896875000000023Q-2.3734374999999996 0.5071875000000006 -2.40125 0.5226041666666674Q-2.4290624999999997 0.5380208333333343 -2.473020833333333 0.5380208333333343L-2.473020833333333 0.5380208333333343Q-2.517708333333333 0.5380208333333343 -2.545416666666666 0.5226041666666674Q-2.5730208333333335 0.5071875000000006 -2.58875 0.4896875000000023L-2.58875 0.4896875000000023Q-2.6107291666666663 0.46552083333333627 -2.6203125 0.43541666666666856Q-2.6297916666666667 0.4054166666666674 -2.6297916666666667 0.34312500000000057ZM-2.3928125 0.34385416666666657L-2.3928125 0.34385416666666657Q-2.3928125 0.302500000000002 -2.397083333333333 0.2856250000000031Q-2.40125 0.26885416666666373 -2.4115624999999996 0.2534374999999969L-2.4115624999999996 0.2534374999999969Q-2.4316666666666666 0.22562500000000085 -2.473020833333333 0.22562500000000085L-2.473020833333333 0.22562500000000085Q-2.5152083333333337 0.22562500000000085 -2.534583333333333 0.2534374999999969L-2.534583333333333 0.2534374999999969Q-2.5455208333333337 0.26885416666666373 -2.5493750000000004 0.2856250000000031Q-2.553229166666666 0.302500000000002 -2.553229166666666 0.34312500000000057L-2.553229166666666 0.34312500000000057Q-2.553229166666666 0.38489583333333144 -2.5493750000000004 0.40197916666666345Q-2.5455208333333337 0.418958333333336 -2.534583333333333 0.43395833333333655L-2.534583333333333 0.43395833333333655Q-2.5152083333333337 0.4617708333333326 -2.473020833333333 0.4617708333333326L-2.473020833333333 0.4617708333333326Q-2.4316666666666666 0.4617708333333326 -2.4115624999999996 0.43395833333333655L-2.4115624999999996 0.43395833333333655Q-2.40125 0.418958333333336 -2.397083333333333 0.40208333333333Q-2.3928125 0.3853124999999977 -2.3928125 0.34385416666666657ZM-1.9325 0.5336458333333312L-2.0090624999999998 0.5336458333333312L-2.0090624999999998 0.4940624999999983Q-2.048958333333333 0.5380208333333343 -2.1071875 0.5380208333333343L-2.1071875 0.5380208333333343Q-2.1423958333333335 0.5380208333333343 -2.167604166666667 0.5242708333333326Q-2.192916666666667 0.5105208333333309 -2.2090625 0.48895833333333627L-2.2090625 0.48895833333333627Q-2.225104166666667 0.46875 -2.230625 0.44114583333333Q-2.2361458333333335 0.41343750000000057 -2.2361458333333335 0.34312500000000057L-2.2361458333333335 0.34312500000000057Q-2.2361458333333335 0.27354166666666657 -2.230625 0.24635416666666998Q-2.225104166666667 0.21906249999999972 -2.2090625 0.19854166666666373L-2.2090625 0.19854166666666373Q-2.192916666666667 0.17729166666666885 -2.167604166666667 0.16312500000000085Q-2.1423958333333335 0.14906249999999943 -2.1071875 0.14906249999999943L-2.1071875 0.14906249999999943Q-2.077916666666667 0.14906249999999943 -2.0540624999999997 0.16156250000000227Q-2.0303125 0.17395833333333144 -2.0090624999999998 0.1941666666666677L-2.0090624999999998 0.1941666666666677L-2.0090624999999998 0L-1.9325 0L-1.9325 0.5336458333333312ZM-2.08375 0.22562500000000085L-2.08375 0.22562500000000085Q-2.138020833333333 0.22562500000000085 -2.1487499999999997 0.2626041666666694Q-2.159583333333333 0.29958333333333087 -2.159583333333333 0.34312500000000057L-2.159583333333333 0.34312500000000057Q-2.159583333333333 0.38781250000000256 -2.1487499999999997 0.424791666666664Q-2.138020833333333 0.4617708333333326 -2.08375 0.4617708333333326L-2.08375 0.4617708333333326Q-2.0306249999999997 0.4617708333333326 -2.019895833333333 0.423333333333332Q-2.0090624999999998 0.38489583333333144 -2.0090624999999998 0.34312500000000057L-2.0090624999999998 0.34312500000000057Q-2.0090624999999998 0.302500000000002 -2.019895833333333 0.2640625000000014Q-2.0306249999999997 0.22562500000000085 -2.08375 0.22562500000000085ZM-1.786458333333333 0.58229166666667L-1.7655208333333334 0.5189583333333303L-1.901770833333333 0.15343750000000256L-1.82125 0.15343750000000256L-1.7311458333333336 0.419687500000002L-1.7296874999999998 0.419687500000002L-1.6395833333333334 0.15343750000000256L-1.5586458333333333 0.15343750000000256L-1.7219791666666664 0.612291666666664Q-1.7381250000000001 0.65625 -1.7662500000000003 0.671875Q-1.794479166666667 0.6873958333333334 -1.8292708333333332 0.6873958333333334L-1.8292708333333332 0.6873958333333334L-1.8548958333333339 0.6873958333333334L-1.8548958333333339 0.6153125000000017L-1.8321874999999999 0.6153125000000017Q-1.7978125 0.6153125000000017 -1.786458333333333 0.58229166666667L-1.786458333333333 0.58229166666667Z " fill="#7c7c7c"></path><path id="SvgjsPath1022" d="M6.076458333333333 2.533645833333331L6 2.533645833333331L6 2L6.076458333333333 2L6.076458333333333 2.1941666666666677L6.077916666666667 2.1941666666666677Q6.1134375 2.1490624999999994 6.176875 2.1490624999999994L6.176875 2.1490624999999994Q6.221145833333333 2.1490624999999994 6.262395833333334 2.182812499999997Q6.303541666666667 2.2164583333333354 6.303541666666667 2.2809375000000003L6.303541666666667 2.2809375000000003L6.303541666666667 2.533645833333331L6.226979166666666 2.533645833333331L6.226979166666666 2.3072916666666643Q6.226979166666666 2.2688541666666637 6.205625 2.2471875000000026Q6.184166666666667 2.225625000000001 6.152291666666667 2.225625000000001L6.152291666666667 2.225625000000001Q6.119375 2.225625000000001 6.097916666666666 2.2471875000000026Q6.076458333333333 2.2688541666666637 6.076458333333333 2.3072916666666643L6.076458333333333 2.3072916666666643L6.076458333333333 2.533645833333331ZM6.695 2.3094791666666694L6.695 2.3725000000000023L6.4584375 2.3725000000000023Q6.4584375 2.4193750000000023 6.483958333333334 2.4428125000000023Q6.509375 2.4662500000000023 6.548958333333333 2.4662500000000023L6.548958333333333 2.4662500000000023Q6.596145833333333 2.4662500000000023 6.632395833333334 2.4295833333333334L6.632395833333334 2.4295833333333334L6.687708333333333 2.4768749999999997Q6.659479166666666 2.509791666666665 6.6241666666666665 2.5238541666666663Q6.588854166666667 2.5380208333333343 6.550416666666667 2.5380208333333343L6.550416666666667 2.5380208333333343Q6.491770833333334 2.5380208333333343 6.436875 2.5001041666666666Q6.381875 2.462187499999999 6.381875 2.344999999999999L6.381875 2.344999999999999Q6.381875 2.2340625000000003 6.432604166666667 2.1915625000000034Q6.483333333333333 2.1490624999999994 6.538645833333334 2.1490624999999994L6.538645833333334 2.1490624999999994Q6.60125 2.1490624999999994 6.648125 2.1925000000000026Q6.695 2.235833333333332 6.695 2.3094791666666694L6.695 2.3094791666666694ZM6.4584375 2.3094791666666694L6.4584375 2.3094791666666694L6.618854166666667 2.3094791666666694Q6.616979166666667 2.2666666666666657 6.5946875 2.2439583333333317Q6.572395833333333 2.2212499999999977 6.538645833333334 2.2212499999999977L6.538645833333334 2.2212499999999977Q6.504583333333334 2.2212499999999977 6.482083333333334 2.2439583333333317Q6.459583333333334 2.2666666666666657 6.4584375 2.3094791666666694ZM7.0509375 2.5351041666666703L6.976979166666666 2.5351041666666703L6.976979166666666 2.5013541666666654L6.975520833333333 2.5013541666666654Q6.964895833333333 2.5211458333333354 6.943645833333333 2.5298958333333346L6.943645833333333 2.5298958333333346Q6.9209375 2.5394791666666663 6.884375 2.5394791666666663L6.884375 2.5394791666666663Q6.821354166666667 2.5380208333333343 6.789166666666667 2.5057291666666686L6.789166666666667 2.5057291666666686Q6.753958333333333 2.4735416666666694 6.753958333333333 2.423333333333332L6.753958333333333 2.423333333333332Q6.753958333333333 2.375729166666666 6.784375 2.343541666666667L6.784375 2.343541666666667Q6.814791666666666 2.3113541666666677 6.8740625 2.310520833333335L6.8740625 2.310520833333335L6.976979166666666 2.310520833333335L6.976979166666666 2.270312500000003Q6.9773958333333335 2.2197916666666657 6.90125 2.2212499999999977L6.90125 2.2212499999999977Q6.874791666666667 2.2212499999999977 6.857291666666667 2.227083333333333L6.857291666666667 2.227083333333333Q6.84 2.2347916666666663 6.83125 2.2508333333333326L6.83125 2.2508333333333326L6.772708333333333 2.2046874999999986Q6.815104166666667 2.1480208333333337 6.8975 2.1494791666666657L6.8975 2.1494791666666657Q6.966770833333333 2.1487499999999997 7.008854166666667 2.176562500000003L7.008854166666667 2.176562500000003Q7.050208333333333 2.205520833333331 7.0509375 2.274687499999999L7.0509375 2.274687499999999L7.0509375 2.5351041666666703ZM6.976979166666666 2.401354166666664L6.976979166666666 2.401354166666664L6.976979166666666 2.373541666666668L6.888020833333333 2.373541666666668Q6.8228125 2.3754166666666663 6.823541666666666 2.419687500000002L6.823541666666666 2.419687500000002Q6.823541666666666 2.438749999999999 6.840416666666667 2.4527083333333337L6.840416666666667 2.4527083333333337Q6.8565625 2.4677083333333343 6.893541666666667 2.4677083333333343L6.893541666666667 2.4677083333333343Q6.940416666666667 2.4684375000000003 6.959479166666667 2.4563541666666637L6.959479166666667 2.4563541666666637Q6.976979166666666 2.4442708333333343 6.976979166666666 2.401354166666664ZM7.439583333333333 2.533645833333331L7.363020833333334 2.533645833333331L7.363020833333334 2.4940624999999983Q7.323125 2.5380208333333343 7.264895833333334 2.5380208333333343L7.264895833333334 2.5380208333333343Q7.2296875 2.5380208333333343 7.204479166666666 2.5242708333333326Q7.179166666666666 2.510520833333331 7.163020833333333 2.4889583333333363L7.163020833333333 2.4889583333333363Q7.146979166666667 2.46875 7.1414583333333335 2.44114583333333Q7.1359375 2.4134375000000006 7.1359375 2.3431250000000006L7.1359375 2.3431250000000006Q7.1359375 2.2735416666666666 7.1414583333333335 2.24635416666667Q7.146979166666667 2.2190624999999997 7.163020833333333 2.1985416666666637L7.163020833333333 2.1985416666666637Q7.179166666666666 2.177291666666669 7.204479166666666 2.163125000000001Q7.2296875 2.1490624999999994 7.264895833333334 2.1490624999999994L7.264895833333334 2.1490624999999994Q7.294166666666667 2.1490624999999994 7.317916666666667 2.1615625000000023Q7.341770833333333 2.1739583333333314 7.363020833333334 2.1941666666666677L7.363020833333334 2.1941666666666677L7.363020833333334 2L7.439583333333333 2L7.439583333333333 2.533645833333331ZM7.288333333333334 2.225625000000001L7.288333333333334 2.225625000000001Q7.2340625 2.225625000000001 7.223333333333334 2.2626041666666694Q7.2125 2.299583333333331 7.2125 2.3431250000000006L7.2125 2.3431250000000006Q7.2125 2.3878125000000026 7.223333333333334 2.424791666666664Q7.2340625 2.4617708333333326 7.288333333333334 2.4617708333333326L7.288333333333334 2.4617708333333326Q7.341354166666667 2.4617708333333326 7.3521875 2.423333333333332Q7.363020833333334 2.3848958333333314 7.363020833333334 2.3431250000000006L7.363020833333334 2.3431250000000006Q7.363020833333334 2.302500000000002 7.3521875 2.2640625000000014Q7.341354166666667 2.225625000000001 7.288333333333334 2.225625000000001ZM7.482708333333333 2.470208333333332L7.482708333333333 2.470208333333332L7.536250000000001 2.417499999999997Q7.586041666666667 2.4662500000000023 7.6559375 2.4662500000000023L7.6559375 2.4662500000000023Q7.688541666666667 2.4662500000000023 7.709791666666667 2.4539583333333326Q7.731041666666667 2.44166666666667 7.731041666666667 2.417499999999997L7.731041666666667 2.417499999999997Q7.731041666666667 2.3841666666666654 7.684583333333333 2.380104166666669L7.684583333333333 2.380104166666669L7.6171875 2.3739583333333343Q7.569895833333334 2.370312499999997 7.53875 2.342812500000001Q7.507604166666667 2.3153124999999974 7.507604166666667 2.2662499999999994L7.507604166666667 2.2662499999999994Q7.507604166666667 2.2084375000000023 7.548333333333334 2.178750000000001Q7.588958333333333 2.1490624999999994 7.649375 2.1490624999999994L7.649375 2.1490624999999994Q7.699166666666667 2.1490624999999994 7.7346875 2.163125000000001Q7.770208333333333 2.177291666666669 7.7984375 2.200729166666669L7.7984375 2.200729166666669L7.751145833333333 2.256354166666668Q7.7284375 2.2410416666666677 7.704270833333333 2.2311458333333363Q7.680104166666667 2.2212499999999977 7.649375 2.2212499999999977L7.649375 2.2212499999999977Q7.612708333333333 2.2212499999999977 7.5984375 2.234166666666667Q7.5841666666666665 2.2471875000000026 7.5841666666666665 2.2669791666666654L7.5841666666666665 2.2669791666666654Q7.5841666666666665 2.2794791666666683 7.594791666666667 2.2901041666666657Q7.605416666666667 2.3007291666666703 7.634375 2.3029166666666683L7.634375 2.3029166666666683L7.697395833333333 2.3072916666666643Q7.756354166666667 2.3113541666666677 7.781979166666667 2.34375Q7.807604166666667 2.3761458333333323 7.807604166666667 2.421145833333334L7.807604166666667 2.421145833333334Q7.807604166666667 2.4771874999999994 7.761770833333333 2.507604166666667Q7.716041666666667 2.5380208333333343 7.650104166666667 2.5380208333333343L7.650104166666667 2.5380208333333343Q7.5553125 2.5380208333333343 7.482708333333333 2.470208333333332Z " fill="#7c7c7c"></path><path id="SvgjsPath1025" d="M -2.3,0.8 Q -2.3,2 -0.6,2" stroke-linejoin="round" stroke-linecap="round" stroke="#7c7c7c" stroke-width="0.06" fill="none" marker-end="url(#SvgjsMarker1023)"></path><path id="SvgjsPath1026" d="M 5.8,2.1 C 4.8,2.1 5.6,0 4.6,0" stroke-linejoin="round" stroke-linecap="round" stroke="#7c7c7c" stroke-width="0.06" fill="none" marker-end="url(#SvgjsMarker1023)"></path><path id="SvgjsPath1027" d="M 5.8,2.2 C 4.8,2.2 5.3,1 4.6,1" stroke-linejoin="round" stroke-linecap="round" stroke="#7c7c7c" stroke-width="0.06" fill="none" marker-end="url(#SvgjsMarker1023)"></path><path id="SvgjsPath1028" d="M 5.8,2.3 C 4.8,2.3 5.1,2 4.6,2" stroke-linejoin="round" stroke-linecap="round" stroke="#7c7c7c" stroke-width="0.06" fill="none" marker-end="url(#SvgjsMarker1023)"></path><path id="SvgjsPath1029" d="M 5.8,2.4 C 4.8,2.4 5,2.5 4,2.5 S 3.6,2 2.6,2" stroke-linejoin="round" stroke-linecap="round" stroke="#7c7c7c" stroke-width="0.06" fill="none" marker-end="url(#SvgjsMarker1023)"></path><path id="SvgjsPath1030" d="M 5.8,2.5 C 4.8,2.5 5.6,3 4.6,3" stroke-linejoin="round" stroke-linecap="round" stroke="#7c7c7c" stroke-width="0.06" fill="none" marker-end="url(#SvgjsMarker1023)"></path></svg>