<svg xmlns="http://www.w3.org/2000/svg" version="1.1" xmlns:xlink="http://www.w3.org/1999/xlink" xmlns:svgjs="http://svgjs.com/svgjs" viewBox="-0.25 -1.25 16.5 3.55"><svg id="SvgjsSvg1002" width="2" height="0" focusable="false" style="overflow:hidden;top:-100%;left:-100%;position:absolute;opacity:0"><polyline id="SvgjsPolyline1003" points="0,0"></polyline><path id="SvgjsPath1004" d=""></path></svg><g id="SvgjsG1123"><line id="SvgjsLine1122" x1="4" y1="1" x2="2" y2="1" stroke="#000000" stroke-width="0.1"></line><line id="SvgjsLine1120" x1="2" y1="1" x2="0" y2="0.5" stroke="#000000" stroke-width="0.1"></line><line id="SvgjsLine1118" x1="4" y1="0" x2="2" y2="0" stroke="#000000" stroke-width="0.1"></line><line id="SvgjsLine1116" x1="2" y1="0" x2="0" y2="0.5" stroke="#000000" stroke-width="0.1"></line><circle id="SvgjsCircle1114" r="0.25" cx="0" cy="0.5"></circle><circle id="SvgjsCircle1115" r="0.25" cx="2" cy="0"></circle><circle id="SvgjsCircle1117" r="0.25" cx="4" cy="0"></circle><circle id="SvgjsCircle1119" r="0.25" cx="2" cy="1"></circle><circle id="SvgjsCircle1121" r="0.25" cx="4" cy="1"></circle><path id="SvgjsPath1142" d="M 4.3,1.3 l -0.6,-0.6 m 0,0.6 l 0.6,-0.6" stroke="#bf0000" stroke-width="0.1"></path></g><g id="SvgjsG1135" transform="matrix(1,0,0,1,6,-1)"><line id="SvgjsLine1134" x1="2" y1="3" x2="0" y2="1.5" stroke="#422aa8" stroke-width="0.1"></line><line id="SvgjsLine1132" x1="2" y1="2" x2="0" y2="1.5" stroke="#422aa8" stroke-width="0.1"></line><line id="SvgjsLine1130" x1="2" y1="1" x2="0" y2="1.5" stroke="#422aa8" stroke-width="0.1"></line><line id="SvgjsLine1128" x1="4" y1="0" x2="2" y2="0" stroke="#000000" stroke-width="0.1"></line><line id="SvgjsLine1126" x1="2" y1="0" x2="0" y2="1.5" stroke="#000000" stroke-width="0.1"></line><circle id="SvgjsCircle1124" r="0.25" cx="0" cy="1.5"></circle><circle id="SvgjsCircle1125" r="0.25" cx="2" cy="0"></circle><circle id="SvgjsCircle1127" r="0.25" cx="4" cy="0"></circle><circle id="SvgjsCircle1129" r="0.25" cx="2" cy="1" fill="#422aa8"></circle><circle id="SvgjsCircle1131" r="0.25" cx="2" cy="2" fill="#422aa8"></circle><circle id="SvgjsCircle1133" r="0.25" cx="2" cy="3" fill="#422aa8"></circle><path id="SvgjsPath1143" d="M 2.3,1.3 l -0.6,-0.6 m 0,0.6 l 0.6,-0.6" stroke="#bf0000" stroke-width="0.1"></path><path id="SvgjsPath1144" d="M 2.3,2.3 l -0.6,-0.6 m 0,0.6 l 0.6,-0.6" stroke="#bf0000" stroke-width="0.1"></path><path id="SvgjsPath1145" d="M 2.3,3.3 l -0.6,-0.6 m 0,0.6 l 0.6,-0.6" stroke="#bf0000" stroke-width="0.1"></path></g><g id="SvgjsG1141" transform="matrix(1,0,0,1,12,0.5)"><line id="SvgjsLine1140" x1="4" y1="0" x2="2" y2="0" stroke="#000000" stroke-width="0.1"></line><line id="SvgjsLine1138" x1="2" y1="0" x2="0" y2="0" stroke="#000000" stroke-width="0.1"></line><circle id="SvgjsCircle1136" r="0.25" cx="0" cy="0"></circle><circle id="SvgjsCircle1137" r="0.25" cx="2" cy="0"></circle><circle id="SvgjsCircle1139" r="0.25" cx="4" cy="0"></circle></g></svg>