<svg xmlns="http://www.w3.org/2000/svg" version="1.1" xmlns:xlink="http://www.w3.org/1999/xlink" xmlns:svgjs="http://svgjs.com/svgjs" viewBox="-0.25 -1.25 12.5 4.5"><svg id="SvgjsSvg1002" width="2" height="0" focusable="false" style="overflow:hidden;top:-100%;left:-100%;position:absolute;opacity:0"><polyline id="SvgjsPolyline1003" points="0,0"></polyline><path id="SvgjsPath1004" d=""></path></svg><g id="SvgjsG1067"><line id="SvgjsLine1066" x1="4" y1="2" x2="2" y2="2" stroke="#000000" stroke-width="0.1"></line><line id="SvgjsLine1064" x1="2" y1="2" x2="0" y2="1" stroke="#000000" stroke-width="0.1"></line><line id="SvgjsLine1062" x1="4" y1="1" x2="2" y2="1" stroke="#000000" stroke-width="0.1"></line><line id="SvgjsLine1060" x1="2" y1="1" x2="0" y2="1" stroke="#000000" stroke-width="0.1"></line><line id="SvgjsLine1058" x1="4" y1="0" x2="2" y2="0" stroke="#000000" stroke-width="0.1"></line><line id="SvgjsLine1056" x1="2" y1="0" x2="0" y2="1" stroke="#000000" stroke-width="0.1"></line><circle id="SvgjsCircle1054" r="0.25" cx="0" cy="1"></circle><circle id="SvgjsCircle1055" r="0.25" cx="2" cy="0"></circle><circle id="SvgjsCircle1057" r="0.25" cx="4" cy="0"></circle><circle id="SvgjsCircle1059" r="0.25" cx="2" cy="1"></circle><circle id="SvgjsCircle1061" r="0.25" cx="4" cy="1"></circle><circle id="SvgjsCircle1063" r="0.25" cx="2" cy="2"></circle><circle id="SvgjsCircle1065" r="0.25" cx="4" cy="2"></circle><path id="SvgjsPath1084" d="M 4.3,1.3 l -0.6,-0.6 m 0,0.6 l 0.6,-0.6" stroke="#bf0000" stroke-width="0.1"></path></g><g id="SvgjsG1083" transform="matrix(1,0,0,1,8,-1)"><line id="SvgjsLine1082" x1="4" y1="4" x2="2" y2="4" stroke="#000000" stroke-width="0.1"></line><line id="SvgjsLine1080" x1="2" y1="4" x2="0" y2="2" stroke="#000000" stroke-width="0.1"></line><line id="SvgjsLine1078" x1="2" y1="3" x2="0" y2="2" stroke="#422aa8" stroke-width="0.1"></line><line id="SvgjsLine1076" x1="2" y1="2" x2="0" y2="2" stroke="#422aa8" stroke-width="0.1"></line><line id="SvgjsLine1074" x1="2" y1="1" x2="0" y2="2" stroke="#422aa8" stroke-width="0.1"></line><line id="SvgjsLine1072" x1="4" y1="0" x2="2" y2="0" stroke="#000000" stroke-width="0.1"></line><line id="SvgjsLine1070" x1="2" y1="0" x2="0" y2="2" stroke="#000000" stroke-width="0.1"></line><circle id="SvgjsCircle1068" r="0.25" cx="0" cy="2"></circle><circle id="SvgjsCircle1069" r="0.25" cx="2" cy="0"></circle><circle id="SvgjsCircle1071" r="0.25" cx="4" cy="0"></circle><circle id="SvgjsCircle1073" r="0.25" cx="2" cy="1" fill="#422aa8"></circle><circle id="SvgjsCircle1075" r="0.25" cx="2" cy="2" fill="#422aa8"></circle><circle id="SvgjsCircle1077" r="0.25" cx="2" cy="3" fill="#422aa8"></circle><circle id="SvgjsCircle1079" r="0.25" cx="2" cy="4"></circle><circle id="SvgjsCircle1081" r="0.25" cx="4" cy="4"></circle></g></svg>