<svg xmlns="http://www.w3.org/2000/svg" version="1.1" xmlns:xlink="http://www.w3.org/1999/xlink" xmlns:svgjs="http://svgjs.com/svgjs" viewBox="-0.25 -0.75 12.5 2.5"><svg id="SvgjsSvg1002" width="2" height="0" focusable="false" style="overflow:hidden;top:-100%;left:-100%;position:absolute;opacity:0"><polyline id="SvgjsPolyline1003" points="0,0"></polyline><path id="SvgjsPath1004" d=""></path></svg><g id="SvgjsG1038"><line id="SvgjsLine1037" x1="4" y1="1" x2="2" y2="0.5" stroke="#000000" stroke-width="0.1"></line><line id="SvgjsLine1035" x1="4" y1="0" x2="2" y2="0.5" stroke="#000000" stroke-width="0.1"></line><line id="SvgjsLine1033" x1="2" y1="0.5" x2="0" y2="0.5" stroke="#000000" stroke-width="0.1"></line><circle id="SvgjsCircle1031" r="0.25" cx="0" cy="0.5"></circle><circle id="SvgjsCircle1032" r="0.25" cx="2" cy="0.5"></circle><circle id="SvgjsCircle1034" r="0.25" cx="4" cy="0"></circle><circle id="SvgjsCircle1036" r="0.25" cx="4" cy="1"></circle><path id="SvgjsPath1053" d="M 4.3,1.3 l -0.6,-0.6 m 0,0.6 l 0.6,-0.6" stroke="#bf0000" stroke-width="0.1"></path></g><g id="SvgjsG1052" transform="matrix(1,0,0,1,8,-0.5)"><line id="SvgjsLine1051" x1="4" y1="2" x2="2" y2="2" stroke="#422aa8" stroke-width="0.1"></line><line id="SvgjsLine1049" x1="2" y1="2" x2="0" y2="1" stroke="#422aa8" stroke-width="0.1"></line><line id="SvgjsLine1047" x1="4" y1="1" x2="2" y2="1" stroke="#422aa8" stroke-width="0.1"></line><line id="SvgjsLine1045" x1="2" y1="1" x2="0" y2="1" stroke="#422aa8" stroke-width="0.1"></line><line id="SvgjsLine1043" x1="4" y1="0" x2="2" y2="0" stroke="#422aa8" stroke-width="0.1"></line><line id="SvgjsLine1041" x1="2" y1="0" x2="0" y2="1" stroke="#422aa8" stroke-width="0.1"></line><circle id="SvgjsCircle1039" r="0.25" cx="0" cy="1"></circle><circle id="SvgjsCircle1040" r="0.25" cx="2" cy="0" fill="#422aa8"></circle><circle id="SvgjsCircle1042" r="0.25" cx="4" cy="0" fill="#422aa8"></circle><circle id="SvgjsCircle1044" r="0.25" cx="2" cy="1" fill="#422aa8"></circle><circle id="SvgjsCircle1046" r="0.25" cx="4" cy="1" fill="#422aa8"></circle><circle id="SvgjsCircle1048" r="0.25" cx="2" cy="2" fill="#422aa8"></circle><circle id="SvgjsCircle1050" r="0.25" cx="4" cy="2" fill="#422aa8"></circle></g></svg>