<svg xmlns="http://www.w3.org/2000/svg" viewBox="0 0 448 448" width="1em" height="1em">
  <path
     d="m 128.081,383.9587 c 0,35.369 -28.672,64.041 -64.041,64.041 -35.369,0 -64.04,-28.672 -64.04,-64.041 0,-35.369 28.672,-64.041 64.041,-64.041 35.369,0 64.04,28.673 64.04,64.041 z m 175.66,47.25 C 295.387,276.6087 171.556,152.6217 16.791,144.2587 7.656,143.7647 0,151.1047 0,160.2527 v 48.069 c 0,8.415 6.49,15.472 14.887,16.018 111.832,7.284 201.473,96.702 208.772,208.772 0.547,8.397 7.604,14.887 16.018,14.887 h 48.069 c 9.149,0.001 16.489,-7.655 15.995,-16.79 z m 144.249,0.288 C 439.596,197.6767 251.465,8.4446954 16.503,0.00969543 7.473,-0.31430457 0,6.9806954 0,16.015695 v 48.068 c 0,8.625 6.835,15.645 15.453,15.999 191.179,7.839 344.627,161.316005 352.465,352.465005 0.353,8.618 7.373,15.453 15.999,15.453 h 48.068 c 9.034,-10e-4 16.329,-7.474 16.005,-16.504 z"
     id="path843" />
</svg>
