<?xml version="1.0" encoding="UTF-8"?>
<svg xmlns="http://www.w3.org/2000/svg" xmlns:xlink="http://www.w3.org/1999/xlink" width="571pt" height="91pt" viewBox="0 0 571 91" version="1.1">
<g id="surface51">
<path style="fill:none;stroke-width:3.486;stroke-linecap:square;stroke-linejoin:miter;stroke:rgb(0%,0%,0%);stroke-opacity:1;stroke-miterlimit:3.25;" d="M 84.15625 22.691406 L 127.730469 22.691406 " transform="matrix(1,0,0,1,-66,-5)"/>
<path style="fill:none;stroke-width:3.486;stroke-linecap:square;stroke-linejoin:miter;stroke:rgb(66.665649%,33.332825%,66.665649%);stroke-opacity:1;stroke-miterlimit:3.25;" d="M 127.730469 22.691406 L 171.304688 22.691406 " transform="matrix(1,0,0,1,-66,-5)"/>
<path style="fill:none;stroke-width:3.486;stroke-linecap:square;stroke-linejoin:miter;stroke:rgb(66.665649%,33.332825%,66.665649%);stroke-opacity:1;stroke-miterlimit:3.25;" d="M 84.15625 88.054688 L 171.304688 88.054688 " transform="matrix(1,0,0,1,-66,-5)"/>
<path style="fill:none;stroke-width:3.486;stroke-linecap:square;stroke-linejoin:miter;stroke:rgb(66.665649%,33.332825%,66.665649%);stroke-opacity:1;stroke-miterlimit:3.25;" d="M 236.667969 22.691406 L 280.242188 22.691406 " transform="matrix(1,0,0,1,-66,-5)"/>
<path style="fill:none;stroke-width:3.486;stroke-linecap:square;stroke-linejoin:miter;stroke:rgb(0%,0%,0%);stroke-opacity:1;stroke-miterlimit:3.25;" d="M 280.242188 22.691406 L 323.820313 22.691406 " transform="matrix(1,0,0,1,-66,-5)"/>
<path style="fill:none;stroke-width:3.486;stroke-linecap:square;stroke-linejoin:miter;stroke:rgb(66.665649%,33.332825%,66.665649%);stroke-opacity:1;stroke-miterlimit:3.25;" d="M 236.667969 88.054688 L 323.820313 88.054688 " transform="matrix(1,0,0,1,-66,-5)"/>
<path style="fill:none;stroke-width:3.486;stroke-linecap:square;stroke-linejoin:miter;stroke:rgb(66.665649%,33.332825%,66.665649%);stroke-opacity:1;stroke-miterlimit:3.25;" d="M 389.179688 22.691406 L 432.757813 22.691406 " transform="matrix(1,0,0,1,-66,-5)"/>
<path style="fill:none;stroke-width:3.486;stroke-linecap:square;stroke-linejoin:miter;stroke:rgb(66.665649%,33.332825%,66.665649%);stroke-opacity:1;stroke-miterlimit:3.25;" d="M 432.757813 22.691406 L 476.332031 22.691406 " transform="matrix(1,0,0,1,-66,-5)"/>
<path style="fill:none;stroke-width:3.486;stroke-linecap:square;stroke-linejoin:miter;stroke:rgb(0%,0%,0%);stroke-opacity:1;stroke-miterlimit:3.25;" d="M 389.179688 88.054688 L 476.332031 88.054688 " transform="matrix(1,0,0,1,-66,-5)"/>
<path style="fill:none;stroke-width:3.486;stroke-linecap:square;stroke-linejoin:miter;stroke:rgb(66.665649%,33.332825%,66.665649%);stroke-opacity:1;stroke-miterlimit:3.25;" d="M 541.695313 22.691406 L 585.269531 22.691406 " transform="matrix(1,0,0,1,-66,-5)"/>
<path style="fill:none;stroke-width:3.486;stroke-linecap:square;stroke-linejoin:miter;stroke:rgb(66.665649%,33.332825%,66.665649%);stroke-opacity:1;stroke-miterlimit:3.25;" d="M 585.269531 22.691406 L 628.84375 22.691406 " transform="matrix(1,0,0,1,-66,-5)"/>
<path style="fill:none;stroke-width:3.486;stroke-linecap:square;stroke-linejoin:miter;stroke:rgb(0%,0%,0%);stroke-opacity:1;stroke-miterlimit:3.25;" d="M 541.695313 88.054688 L 628.84375 88.054688 " transform="matrix(1,0,0,1,-66,-5)"/>
<path style="fill-rule:evenodd;fill:rgb(99.998474%,0%,0%);fill-opacity:1;stroke-width:2;stroke-linecap:square;stroke-linejoin:miter;stroke:rgb(0%,0%,0%);stroke-opacity:1;stroke-miterlimit:3.25;" d="M 90.535156 23 C 90.535156 21.265625 89.847656 19.605469 88.621094 18.378906 C 87.394531 17.152344 85.734375 16.464844 84 16.464844 C 82.265625 16.464844 80.605469 17.152344 79.378906 18.378906 C 78.152344 19.605469 77.464844 21.265625 77.464844 23 C 77.464844 24.734375 78.152344 26.394531 79.378906 27.621094 C 80.605469 28.847656 82.265625 29.535156 84 29.535156 C 85.734375 29.535156 87.394531 28.847656 88.621094 27.621094 C 89.847656 26.394531 90.535156 24.734375 90.535156 23 Z " transform="matrix(1,0,0,1,-66,-5)"/>
<path style="fill-rule:evenodd;fill:rgb(99.998474%,0%,0%);fill-opacity:1;stroke-width:2;stroke-linecap:square;stroke-linejoin:miter;stroke:rgb(0%,0%,0%);stroke-opacity:1;stroke-miterlimit:3.25;" d="M 134.535156 23 C 134.535156 21.265625 133.847656 19.605469 132.621094 18.378906 C 131.394531 17.152344 129.734375 16.464844 128 16.464844 C 126.265625 16.464844 124.605469 17.152344 123.378906 18.378906 C 122.152344 19.605469 121.464844 21.265625 121.464844 23 C 121.464844 24.734375 122.152344 26.394531 123.378906 27.621094 C 124.605469 28.847656 126.265625 29.535156 128 29.535156 C 129.734375 29.535156 131.394531 28.847656 132.621094 27.621094 C 133.847656 26.394531 134.535156 24.734375 134.535156 23 Z " transform="matrix(1,0,0,1,-66,-5)"/>
<path style="fill-rule:evenodd;fill:rgb(0%,0%,99.998474%);fill-opacity:1;stroke-width:2;stroke-linecap:square;stroke-linejoin:miter;stroke:rgb(0%,0%,0%);stroke-opacity:1;stroke-miterlimit:3.25;" d="M 177.535156 23 C 177.535156 21.265625 176.847656 19.605469 175.621094 18.378906 C 174.394531 17.152344 172.734375 16.464844 171 16.464844 C 169.265625 16.464844 167.605469 17.152344 166.378906 18.378906 C 165.152344 19.605469 164.464844 21.265625 164.464844 23 C 164.464844 24.734375 165.152344 26.394531 166.378906 27.621094 C 167.605469 28.847656 169.265625 29.535156 171 29.535156 C 172.734375 29.535156 174.394531 28.847656 175.621094 27.621094 C 176.847656 26.394531 177.535156 24.734375 177.535156 23 Z " transform="matrix(1,0,0,1,-66,-5)"/>
<path style="fill-rule:evenodd;fill:rgb(99.998474%,0%,0%);fill-opacity:1;stroke-width:2;stroke-linecap:square;stroke-linejoin:miter;stroke:rgb(0%,0%,0%);stroke-opacity:1;stroke-miterlimit:3.25;" d="M 90.535156 88 C 90.535156 86.265625 89.847656 84.605469 88.621094 83.378906 C 87.394531 82.152344 85.734375 81.464844 84 81.464844 C 82.265625 81.464844 80.605469 82.152344 79.378906 83.378906 C 78.152344 84.605469 77.464844 86.265625 77.464844 88 C 77.464844 89.734375 78.152344 91.394531 79.378906 92.621094 C 80.605469 93.847656 82.265625 94.535156 84 94.535156 C 85.734375 94.535156 87.394531 93.847656 88.621094 92.621094 C 89.847656 91.394531 90.535156 89.734375 90.535156 88 Z " transform="matrix(1,0,0,1,-66,-5)"/>
<path style="fill-rule:evenodd;fill:rgb(0%,0%,99.998474%);fill-opacity:1;stroke-width:2;stroke-linecap:square;stroke-linejoin:miter;stroke:rgb(0%,0%,0%);stroke-opacity:1;stroke-miterlimit:3.25;" d="M 177.535156 88 C 177.535156 86.265625 176.847656 84.605469 175.621094 83.378906 C 174.394531 82.152344 172.734375 81.464844 171 81.464844 C 169.265625 81.464844 167.605469 82.152344 166.378906 83.378906 C 165.152344 84.605469 164.464844 86.265625 164.464844 88 C 164.464844 89.734375 165.152344 91.394531 166.378906 92.621094 C 167.605469 93.847656 169.265625 94.535156 171 94.535156 C 172.734375 94.535156 174.394531 93.847656 175.621094 92.621094 C 176.847656 91.394531 177.535156 89.734375 177.535156 88 Z " transform="matrix(1,0,0,1,-66,-5)"/>
<path style="fill-rule:evenodd;fill:rgb(99.998474%,0%,0%);fill-opacity:1;stroke-width:2;stroke-linecap:square;stroke-linejoin:miter;stroke:rgb(0%,0%,0%);stroke-opacity:1;stroke-miterlimit:3.25;" d="M 243.535156 23 C 243.535156 21.265625 242.847656 19.605469 241.621094 18.378906 C 240.394531 17.152344 238.734375 16.464844 237 16.464844 C 235.265625 16.464844 233.605469 17.152344 232.378906 18.378906 C 231.152344 19.605469 230.464844 21.265625 230.464844 23 C 230.464844 24.734375 231.152344 26.394531 232.378906 27.621094 C 233.605469 28.847656 235.265625 29.535156 237 29.535156 C 238.734375 29.535156 240.394531 28.847656 241.621094 27.621094 C 242.847656 26.394531 243.535156 24.734375 243.535156 23 Z " transform="matrix(1,0,0,1,-66,-5)"/>
<path style="fill-rule:evenodd;fill:rgb(0%,0%,99.998474%);fill-opacity:1;stroke-width:2;stroke-linecap:square;stroke-linejoin:miter;stroke:rgb(0%,0%,0%);stroke-opacity:1;stroke-miterlimit:3.25;" d="M 286.535156 23 C 286.535156 21.265625 285.847656 19.605469 284.621094 18.378906 C 283.394531 17.152344 281.734375 16.464844 280 16.464844 C 278.265625 16.464844 276.605469 17.152344 275.378906 18.378906 C 274.152344 19.605469 273.464844 21.265625 273.464844 23 C 273.464844 24.734375 274.152344 26.394531 275.378906 27.621094 C 276.605469 28.847656 278.265625 29.535156 280 29.535156 C 281.734375 29.535156 283.394531 28.847656 284.621094 27.621094 C 285.847656 26.394531 286.535156 24.734375 286.535156 23 Z " transform="matrix(1,0,0,1,-66,-5)"/>
<path style="fill-rule:evenodd;fill:rgb(0%,0%,99.998474%);fill-opacity:1;stroke-width:2;stroke-linecap:square;stroke-linejoin:miter;stroke:rgb(0%,0%,0%);stroke-opacity:1;stroke-miterlimit:3.25;" d="M 330.535156 23 C 330.535156 21.265625 329.847656 19.605469 328.621094 18.378906 C 327.394531 17.152344 325.734375 16.464844 324 16.464844 C 322.265625 16.464844 320.605469 17.152344 319.378906 18.378906 C 318.152344 19.605469 317.464844 21.265625 317.464844 23 C 317.464844 24.734375 318.152344 26.394531 319.378906 27.621094 C 320.605469 28.847656 322.265625 29.535156 324 29.535156 C 325.734375 29.535156 327.394531 28.847656 328.621094 27.621094 C 329.847656 26.394531 330.535156 24.734375 330.535156 23 Z " transform="matrix(1,0,0,1,-66,-5)"/>
<path style="fill-rule:evenodd;fill:rgb(99.998474%,0%,0%);fill-opacity:1;stroke-width:2;stroke-linecap:square;stroke-linejoin:miter;stroke:rgb(0%,0%,0%);stroke-opacity:1;stroke-miterlimit:3.25;" d="M 243.535156 88 C 243.535156 86.265625 242.847656 84.605469 241.621094 83.378906 C 240.394531 82.152344 238.734375 81.464844 237 81.464844 C 235.265625 81.464844 233.605469 82.152344 232.378906 83.378906 C 231.152344 84.605469 230.464844 86.265625 230.464844 88 C 230.464844 89.734375 231.152344 91.394531 232.378906 92.621094 C 233.605469 93.847656 235.265625 94.535156 237 94.535156 C 238.734375 94.535156 240.394531 93.847656 241.621094 92.621094 C 242.847656 91.394531 243.535156 89.734375 243.535156 88 Z " transform="matrix(1,0,0,1,-66,-5)"/>
<path style="fill-rule:evenodd;fill:rgb(0%,0%,99.998474%);fill-opacity:1;stroke-width:2;stroke-linecap:square;stroke-linejoin:miter;stroke:rgb(0%,0%,0%);stroke-opacity:1;stroke-miterlimit:3.25;" d="M 330.535156 88 C 330.535156 86.265625 329.847656 84.605469 328.621094 83.378906 C 327.394531 82.152344 325.734375 81.464844 324 81.464844 C 322.265625 81.464844 320.605469 82.152344 319.378906 83.378906 C 318.152344 84.605469 317.464844 86.265625 317.464844 88 C 317.464844 89.734375 318.152344 91.394531 319.378906 92.621094 C 320.605469 93.847656 322.265625 94.535156 324 94.535156 C 325.734375 94.535156 327.394531 93.847656 328.621094 92.621094 C 329.847656 91.394531 330.535156 89.734375 330.535156 88 Z " transform="matrix(1,0,0,1,-66,-5)"/>
<path style="fill-rule:evenodd;fill:rgb(99.998474%,0%,0%);fill-opacity:1;stroke-width:2;stroke-linecap:square;stroke-linejoin:miter;stroke:rgb(0%,0%,0%);stroke-opacity:1;stroke-miterlimit:3.25;" d="M 395.535156 23 C 395.535156 21.265625 394.847656 19.605469 393.621094 18.378906 C 392.394531 17.152344 390.734375 16.464844 389 16.464844 C 387.265625 16.464844 385.605469 17.152344 384.378906 18.378906 C 383.152344 19.605469 382.464844 21.265625 382.464844 23 C 382.464844 24.734375 383.152344 26.394531 384.378906 27.621094 C 385.605469 28.847656 387.265625 29.535156 389 29.535156 C 390.734375 29.535156 392.394531 28.847656 393.621094 27.621094 C 394.847656 26.394531 395.535156 24.734375 395.535156 23 Z " transform="matrix(1,0,0,1,-66,-5)"/>
<path style="fill-rule:evenodd;fill:rgb(0%,0%,99.998474%);fill-opacity:1;stroke-width:2;stroke-linecap:square;stroke-linejoin:miter;stroke:rgb(0%,0%,0%);stroke-opacity:1;stroke-miterlimit:3.25;" d="M 439.535156 23 C 439.535156 21.265625 438.847656 19.605469 437.621094 18.378906 C 436.394531 17.152344 434.734375 16.464844 433 16.464844 C 431.265625 16.464844 429.605469 17.152344 428.378906 18.378906 C 427.152344 19.605469 426.464844 21.265625 426.464844 23 C 426.464844 24.734375 427.152344 26.394531 428.378906 27.621094 C 429.605469 28.847656 431.265625 29.535156 433 29.535156 C 434.734375 29.535156 436.394531 28.847656 437.621094 27.621094 C 438.847656 26.394531 439.535156 24.734375 439.535156 23 Z " transform="matrix(1,0,0,1,-66,-5)"/>
<path style="fill-rule:evenodd;fill:rgb(99.998474%,0%,0%);fill-opacity:1;stroke-width:2;stroke-linecap:square;stroke-linejoin:miter;stroke:rgb(0%,0%,0%);stroke-opacity:1;stroke-miterlimit:3.25;" d="M 482.535156 23 C 482.535156 21.265625 481.847656 19.605469 480.621094 18.378906 C 479.394531 17.152344 477.734375 16.464844 476 16.464844 C 474.265625 16.464844 472.605469 17.152344 471.378906 18.378906 C 470.152344 19.605469 469.464844 21.265625 469.464844 23 C 469.464844 24.734375 470.152344 26.394531 471.378906 27.621094 C 472.605469 28.847656 474.265625 29.535156 476 29.535156 C 477.734375 29.535156 479.394531 28.847656 480.621094 27.621094 C 481.847656 26.394531 482.535156 24.734375 482.535156 23 Z " transform="matrix(1,0,0,1,-66,-5)"/>
<path style="fill-rule:evenodd;fill:rgb(99.998474%,0%,0%);fill-opacity:1;stroke-width:2;stroke-linecap:square;stroke-linejoin:miter;stroke:rgb(0%,0%,0%);stroke-opacity:1;stroke-miterlimit:3.25;" d="M 395.535156 88 C 395.535156 86.265625 394.847656 84.605469 393.621094 83.378906 C 392.394531 82.152344 390.734375 81.464844 389 81.464844 C 387.265625 81.464844 385.605469 82.152344 384.378906 83.378906 C 383.152344 84.605469 382.464844 86.265625 382.464844 88 C 382.464844 89.734375 383.152344 91.394531 384.378906 92.621094 C 385.605469 93.847656 387.265625 94.535156 389 94.535156 C 390.734375 94.535156 392.394531 93.847656 393.621094 92.621094 C 394.847656 91.394531 395.535156 89.734375 395.535156 88 Z " transform="matrix(1,0,0,1,-66,-5)"/>
<path style="fill-rule:evenodd;fill:rgb(99.998474%,0%,0%);fill-opacity:1;stroke-width:2;stroke-linecap:square;stroke-linejoin:miter;stroke:rgb(0%,0%,0%);stroke-opacity:1;stroke-miterlimit:3.25;" d="M 482.535156 88 C 482.535156 86.265625 481.847656 84.605469 480.621094 83.378906 C 479.394531 82.152344 477.734375 81.464844 476 81.464844 C 474.265625 81.464844 472.605469 82.152344 471.378906 83.378906 C 470.152344 84.605469 469.464844 86.265625 469.464844 88 C 469.464844 89.734375 470.152344 91.394531 471.378906 92.621094 C 472.605469 93.847656 474.265625 94.535156 476 94.535156 C 477.734375 94.535156 479.394531 93.847656 480.621094 92.621094 C 481.847656 91.394531 482.535156 89.734375 482.535156 88 Z " transform="matrix(1,0,0,1,-66,-5)"/>
<path style="fill-rule:evenodd;fill:rgb(0%,0%,99.998474%);fill-opacity:1;stroke-width:2;stroke-linecap:square;stroke-linejoin:miter;stroke:rgb(0%,0%,0%);stroke-opacity:1;stroke-miterlimit:3.25;" d="M 548.535156 23 C 548.535156 21.265625 547.847656 19.605469 546.621094 18.378906 C 545.394531 17.152344 543.734375 16.464844 542 16.464844 C 540.265625 16.464844 538.605469 17.152344 537.378906 18.378906 C 536.152344 19.605469 535.464844 21.265625 535.464844 23 C 535.464844 24.734375 536.152344 26.394531 537.378906 27.621094 C 538.605469 28.847656 540.265625 29.535156 542 29.535156 C 543.734375 29.535156 545.394531 28.847656 546.621094 27.621094 C 547.847656 26.394531 548.535156 24.734375 548.535156 23 Z " transform="matrix(1,0,0,1,-66,-5)"/>
<path style="fill-rule:evenodd;fill:rgb(99.998474%,0%,0%);fill-opacity:1;stroke-width:2;stroke-linecap:square;stroke-linejoin:miter;stroke:rgb(0%,0%,0%);stroke-opacity:1;stroke-miterlimit:3.25;" d="M 591.535156 23 C 591.535156 21.265625 590.847656 19.605469 589.621094 18.378906 C 588.394531 17.152344 586.734375 16.464844 585 16.464844 C 583.265625 16.464844 581.605469 17.152344 580.378906 18.378906 C 579.152344 19.605469 578.464844 21.265625 578.464844 23 C 578.464844 24.734375 579.152344 26.394531 580.378906 27.621094 C 581.605469 28.847656 583.265625 29.535156 585 29.535156 C 586.734375 29.535156 588.394531 28.847656 589.621094 27.621094 C 590.847656 26.394531 591.535156 24.734375 591.535156 23 Z " transform="matrix(1,0,0,1,-66,-5)"/>
<path style="fill-rule:evenodd;fill:rgb(0%,0%,99.998474%);fill-opacity:1;stroke-width:2;stroke-linecap:square;stroke-linejoin:miter;stroke:rgb(0%,0%,0%);stroke-opacity:1;stroke-miterlimit:3.25;" d="M 635.535156 23 C 635.535156 21.265625 634.847656 19.605469 633.621094 18.378906 C 632.394531 17.152344 630.734375 16.464844 629 16.464844 C 627.265625 16.464844 625.605469 17.152344 624.378906 18.378906 C 623.152344 19.605469 622.464844 21.265625 622.464844 23 C 622.464844 24.734375 623.152344 26.394531 624.378906 27.621094 C 625.605469 28.847656 627.265625 29.535156 629 29.535156 C 630.734375 29.535156 632.394531 28.847656 633.621094 27.621094 C 634.847656 26.394531 635.535156 24.734375 635.535156 23 Z " transform="matrix(1,0,0,1,-66,-5)"/>
<path style="fill-rule:evenodd;fill:rgb(0%,0%,99.998474%);fill-opacity:1;stroke-width:2;stroke-linecap:square;stroke-linejoin:miter;stroke:rgb(0%,0%,0%);stroke-opacity:1;stroke-miterlimit:3.25;" d="M 548.535156 88 C 548.535156 86.265625 547.847656 84.605469 546.621094 83.378906 C 545.394531 82.152344 543.734375 81.464844 542 81.464844 C 540.265625 81.464844 538.605469 82.152344 537.378906 83.378906 C 536.152344 84.605469 535.464844 86.265625 535.464844 88 C 535.464844 89.734375 536.152344 91.394531 537.378906 92.621094 C 538.605469 93.847656 540.265625 94.535156 542 94.535156 C 543.734375 94.535156 545.394531 93.847656 546.621094 92.621094 C 547.847656 91.394531 548.535156 89.734375 548.535156 88 Z " transform="matrix(1,0,0,1,-66,-5)"/>
<path style="fill-rule:evenodd;fill:rgb(0%,0%,99.998474%);fill-opacity:1;stroke-width:2;stroke-linecap:square;stroke-linejoin:miter;stroke:rgb(0%,0%,0%);stroke-opacity:1;stroke-miterlimit:3.25;" d="M 635.535156 88 C 635.535156 86.265625 634.847656 84.605469 633.621094 83.378906 C 632.394531 82.152344 630.734375 81.464844 629 81.464844 C 627.265625 81.464844 625.605469 82.152344 624.378906 83.378906 C 623.152344 84.605469 622.464844 86.265625 622.464844 88 C 622.464844 89.734375 623.152344 91.394531 624.378906 92.621094 C 625.605469 93.847656 627.265625 94.535156 629 94.535156 C 630.734375 94.535156 632.394531 93.847656 633.621094 92.621094 C 634.847656 91.394531 635.535156 89.734375 635.535156 88 Z " transform="matrix(1,0,0,1,-66,-5)"/>
</g>
</svg>
