<?xml version="1.0" encoding="UTF-8"?>
<svg xmlns="http://www.w3.org/2000/svg" xmlns:xlink="http://www.w3.org/1999/xlink" width="348pt" height="347pt" viewBox="0 0 348 347" version="1.1">
<g id="surface58">
<path style="fill:none;stroke-width:7.06;stroke-linecap:square;stroke-linejoin:miter;stroke:rgb(66.665649%,33.332825%,66.665649%);stroke-opacity:1;stroke-miterlimit:3.25;" d="M 88.464844 335.253906 L 88.464844 181.21875 " transform="matrix(1,0,0,1,-66,-5)"/>
<path style="fill:none;stroke-width:7.06;stroke-linecap:square;stroke-linejoin:miter;stroke:rgb(0%,0%,0%);stroke-opacity:1;stroke-miterlimit:3.25;" d="M 88.464844 181.21875 L 88.464844 27.179688 " transform="matrix(1,0,0,1,-66,-5)"/>
<path style="fill:none;stroke-width:7.06;stroke-linecap:square;stroke-linejoin:miter;stroke:rgb(66.665649%,33.332825%,66.665649%);stroke-opacity:1;stroke-miterlimit:3.25;" d="M 88.464844 27.179688 L 319.519531 27.179688 " transform="matrix(1,0,0,1,-66,-5)"/>
<path style="fill:none;stroke-width:7.06;stroke-linecap:square;stroke-linejoin:miter;stroke:rgb(0%,0%,0%);stroke-opacity:1;stroke-miterlimit:3.25;" d="M 319.519531 27.179688 L 396.535156 27.179688 " transform="matrix(1,0,0,1,-66,-5)"/>
<path style="fill:none;stroke-width:7.06;stroke-linecap:square;stroke-linejoin:miter;stroke:rgb(0%,0%,0%);stroke-opacity:1;stroke-miterlimit:3.25;" d="M 396.535156 27.179688 L 396.535156 232.5625 " transform="matrix(1,0,0,1,-66,-5)"/>
<path style="fill:none;stroke-width:7.06;stroke-linecap:square;stroke-linejoin:miter;stroke:rgb(0%,0%,0%);stroke-opacity:1;stroke-miterlimit:3.25;" d="M 396.535156 232.5625 L 396.535156 335.253906 " transform="matrix(1,0,0,1,-66,-5)"/>
<path style="fill:none;stroke-width:7.06;stroke-linecap:square;stroke-linejoin:miter;stroke:rgb(0%,0%,0%);stroke-opacity:1;stroke-miterlimit:3.25;" d="M 396.535156 335.253906 L 88.464844 335.253906 " transform="matrix(1,0,0,1,-66,-5)"/>
<path style="fill:none;stroke-width:7.06;stroke-linecap:square;stroke-linejoin:miter;stroke:rgb(0%,0%,0%);stroke-opacity:1;stroke-miterlimit:3.25;" d="M 88.464844 335.253906 L 242.5 206.890625 " transform="matrix(1,0,0,1,-66,-5)"/>
<path style="fill:none;stroke-width:7.06;stroke-linecap:square;stroke-linejoin:miter;stroke:rgb(0%,0%,0%);stroke-opacity:1;stroke-miterlimit:3.25;" d="M 242.5 206.890625 L 396.535156 335.253906 " transform="matrix(1,0,0,1,-66,-5)"/>
<path style="fill:none;stroke-width:7.06;stroke-linecap:square;stroke-linejoin:miter;stroke:rgb(66.665649%,33.332825%,66.665649%);stroke-opacity:1;stroke-miterlimit:3.25;" d="M 242.5 206.890625 L 88.464844 181.21875 " transform="matrix(1,0,0,1,-66,-5)"/>
<path style="fill:none;stroke-width:7.06;stroke-linecap:square;stroke-linejoin:miter;stroke:rgb(0%,0%,0%);stroke-opacity:1;stroke-miterlimit:3.25;" d="M 242.5 206.890625 L 396.535156 232.5625 " transform="matrix(1,0,0,1,-66,-5)"/>
<path style="fill:none;stroke-width:7.06;stroke-linecap:square;stroke-linejoin:miter;stroke:rgb(0%,0%,0%);stroke-opacity:1;stroke-miterlimit:3.25;" d="M 396.535156 232.5625 L 319.519531 27.179688 " transform="matrix(1,0,0,1,-66,-5)"/>
<path style="fill:none;stroke-width:7.06;stroke-linecap:square;stroke-linejoin:miter;stroke:rgb(66.665649%,33.332825%,66.665649%);stroke-opacity:1;stroke-miterlimit:3.25;" d="M 319.519531 27.179688 L 88.464844 181.21875 " transform="matrix(1,0,0,1,-66,-5)"/>
<path style="fill-rule:evenodd;fill:rgb(99.998474%,0%,0%);fill-opacity:1;stroke-width:2;stroke-linecap:square;stroke-linejoin:miter;stroke:rgb(0%,0%,0%);stroke-opacity:1;stroke-miterlimit:3.25;" d="M 103.402344 335 C 103.402344 330.914063 101.78125 326.996094 98.890625 324.109375 C 96.003906 321.21875 92.085938 319.597656 88 319.597656 C 83.914063 319.597656 79.996094 321.21875 77.109375 324.109375 C 74.21875 326.996094 72.597656 330.914063 72.597656 335 C 72.597656 339.085938 74.21875 343.003906 77.109375 345.890625 C 79.996094 348.78125 83.914063 350.402344 88 350.402344 C 92.085938 350.402344 96.003906 348.78125 98.890625 345.890625 C 101.78125 343.003906 103.402344 339.085938 103.402344 335 Z " transform="matrix(1,0,0,1,-66,-5)"/>
<path style="fill-rule:evenodd;fill:rgb(0%,99.998474%,0%);fill-opacity:1;stroke-width:2;stroke-linecap:square;stroke-linejoin:miter;stroke:rgb(0%,0%,0%);stroke-opacity:1;stroke-miterlimit:3.25;" d="M 412.402344 335 C 412.402344 330.914063 410.78125 326.996094 407.890625 324.109375 C 405.003906 321.21875 401.085938 319.597656 397 319.597656 C 392.914063 319.597656 388.996094 321.21875 386.109375 324.109375 C 383.21875 326.996094 381.597656 330.914063 381.597656 335 C 381.597656 339.085938 383.21875 343.003906 386.109375 345.890625 C 388.996094 348.78125 392.914063 350.402344 397 350.402344 C 401.085938 350.402344 405.003906 348.78125 407.890625 345.890625 C 410.78125 343.003906 412.402344 339.085938 412.402344 335 Z " transform="matrix(1,0,0,1,-66,-5)"/>
<path style="fill-rule:evenodd;fill:rgb(0%,0%,99.998474%);fill-opacity:1;stroke-width:2;stroke-linecap:square;stroke-linejoin:miter;stroke:rgb(0%,0%,0%);stroke-opacity:1;stroke-miterlimit:3.25;" d="M 103.402344 27 C 103.402344 22.914063 101.78125 18.996094 98.890625 16.109375 C 96.003906 13.21875 92.085938 11.597656 88 11.597656 C 83.914063 11.597656 79.996094 13.21875 77.109375 16.109375 C 74.21875 18.996094 72.597656 22.914063 72.597656 27 C 72.597656 31.085938 74.21875 35.003906 77.109375 37.890625 C 79.996094 40.78125 83.914063 42.402344 88 42.402344 C 92.085938 42.402344 96.003906 40.78125 98.890625 37.890625 C 101.78125 35.003906 103.402344 31.085938 103.402344 27 Z " transform="matrix(1,0,0,1,-66,-5)"/>
<path style="fill-rule:evenodd;fill:rgb(0%,99.998474%,0%);fill-opacity:1;stroke-width:2;stroke-linecap:square;stroke-linejoin:miter;stroke:rgb(0%,0%,0%);stroke-opacity:1;stroke-miterlimit:3.25;" d="M 412.402344 27 C 412.402344 22.914063 410.78125 18.996094 407.890625 16.109375 C 405.003906 13.21875 401.085938 11.597656 397 11.597656 C 392.914063 11.597656 388.996094 13.21875 386.109375 16.109375 C 383.21875 18.996094 381.597656 22.914063 381.597656 27 C 381.597656 31.085938 383.21875 35.003906 386.109375 37.890625 C 388.996094 40.78125 392.914063 42.402344 397 42.402344 C 401.085938 42.402344 405.003906 40.78125 407.890625 37.890625 C 410.78125 35.003906 412.402344 31.085938 412.402344 27 Z " transform="matrix(1,0,0,1,-66,-5)"/>
<path style="fill-rule:evenodd;fill:rgb(0%,0%,99.998474%);fill-opacity:1;stroke-width:2;stroke-linecap:square;stroke-linejoin:miter;stroke:rgb(0%,0%,0%);stroke-opacity:1;stroke-miterlimit:3.25;" d="M 103.402344 181 C 103.402344 176.914063 101.78125 172.996094 98.890625 170.109375 C 96.003906 167.21875 92.085938 165.597656 88 165.597656 C 83.914063 165.597656 79.996094 167.21875 77.109375 170.109375 C 74.21875 172.996094 72.597656 176.914063 72.597656 181 C 72.597656 185.085938 74.21875 189.003906 77.109375 191.890625 C 79.996094 194.78125 83.914063 196.402344 88 196.402344 C 92.085938 196.402344 96.003906 194.78125 98.890625 191.890625 C 101.78125 189.003906 103.402344 185.085938 103.402344 181 Z " transform="matrix(1,0,0,1,-66,-5)"/>
<path style="fill-rule:evenodd;fill:rgb(99.998474%,0%,0%);fill-opacity:1;stroke-width:2;stroke-linecap:square;stroke-linejoin:miter;stroke:rgb(0%,0%,0%);stroke-opacity:1;stroke-miterlimit:3.25;" d="M 335.402344 27 C 335.402344 22.914063 333.78125 18.996094 330.890625 16.109375 C 328.003906 13.21875 324.085938 11.597656 320 11.597656 C 315.914063 11.597656 311.996094 13.21875 309.109375 16.109375 C 306.21875 18.996094 304.597656 22.914063 304.597656 27 C 304.597656 31.085938 306.21875 35.003906 309.109375 37.890625 C 311.996094 40.78125 315.914063 42.402344 320 42.402344 C 324.085938 42.402344 328.003906 40.78125 330.890625 37.890625 C 333.78125 35.003906 335.402344 31.085938 335.402344 27 Z " transform="matrix(1,0,0,1,-66,-5)"/>
<path style="fill-rule:evenodd;fill:rgb(99.998474%,0%,0%);fill-opacity:1;stroke-width:2;stroke-linecap:square;stroke-linejoin:miter;stroke:rgb(0%,0%,0%);stroke-opacity:1;stroke-miterlimit:3.25;" d="M 412.402344 233 C 412.402344 228.914063 410.78125 224.996094 407.890625 222.109375 C 405.003906 219.21875 401.085938 217.597656 397 217.597656 C 392.914063 217.597656 388.996094 219.21875 386.109375 222.109375 C 383.21875 224.996094 381.597656 228.914063 381.597656 233 C 381.597656 237.085938 383.21875 241.003906 386.109375 243.890625 C 388.996094 246.78125 392.914063 248.402344 397 248.402344 C 401.085938 248.402344 405.003906 246.78125 407.890625 243.890625 C 410.78125 241.003906 412.402344 237.085938 412.402344 233 Z " transform="matrix(1,0,0,1,-66,-5)"/>
<path style="fill-rule:evenodd;fill:rgb(99.998474%,0%,0%);fill-opacity:1;stroke-width:2;stroke-linecap:square;stroke-linejoin:miter;stroke:rgb(0%,0%,0%);stroke-opacity:1;stroke-miterlimit:3.25;" d="M 257.402344 207 C 257.402344 202.914063 255.78125 198.996094 252.890625 196.109375 C 250.003906 193.21875 246.085938 191.597656 242 191.597656 C 237.914063 191.597656 233.996094 193.21875 231.109375 196.109375 C 228.21875 198.996094 226.597656 202.914063 226.597656 207 C 226.597656 211.085938 228.21875 215.003906 231.109375 217.890625 C 233.996094 220.78125 237.914063 222.402344 242 222.402344 C 246.085938 222.402344 250.003906 220.78125 252.890625 217.890625 C 255.78125 215.003906 257.402344 211.085938 257.402344 207 Z " transform="matrix(1,0,0,1,-66,-5)"/>
</g>
</svg>
